<svg width="276" height="195" viewBox="0 0 276 195" fill="none" xmlns="http://www.w3.org/2000/svg">
<path fill-rule="evenodd" clip-rule="evenodd" d="M182.95 180.075C213.248 175.846 211.566 170.136 236.622 136.805C261.677 103.473 236.622 29.0085 211.566 19.7871C186.51 10.5657 125.089 9.10105 75.0448 40.3307C25.0007 71.5603 21.4625 89.1363 34.3643 112.97C40.0824 123.534 58.3805 149.877 101.744 165.319C123.607 173.105 152.653 184.303 182.95 180.075Z" fill="#4D9447" fill-opacity="0.5"/>
<path d="M71.7922 32.5845C63.071 32.5845 56 25.5135 56 16.7922C56 8.07101 63.071 1 71.7922 1C80.5134 1 87.5845 8.07101 87.5845 16.7922C87.5845 25.5135 80.5134 32.5845 71.7922 32.5845Z" fill="#D0EBD4"/>
<path d="M67.8972 13.2706H64.629V23.831H67.8972V13.2706Z" fill="white"/>
<path d="M66.2469 11.8877C67.3164 11.8877 68.1783 11.0165 68.1783 9.93787C68.1783 8.85924 67.3117 7.98804 66.2469 7.98804C65.1821 7.98804 64.3156 8.85924 64.3156 9.93787C64.3156 11.0165 65.1821 11.8877 66.2469 11.8877Z" fill="white"/>
<path d="M73.1244 18.2857C73.1244 16.8015 73.8066 15.9164 75.1157 15.9164C76.3188 15.9164 76.895 16.7646 76.895 18.2857V23.8264H80.1493V17.1426C80.1493 14.3123 78.5452 12.9479 76.3096 12.9479C74.0739 12.9479 73.129 14.6903 73.129 14.6903V13.266H69.9945V23.8264H73.129V18.2857H73.1244Z" fill="white"/>
<path d="M65.74 120.201C67.3902 119.482 68.5472 117.758 68.5333 115.743C68.5103 113.102 66.4821 110.977 64.0068 111C61.5315 111.019 59.5448 113.18 59.5678 115.817C59.5863 117.85 60.7986 119.569 62.481 120.242C55.5944 121.372 56.0046 128.862 56.0046 128.862L72.3178 128.728C72.3178 128.728 72.5897 121.146 65.74 120.201Z" fill="#D0EBD4"/>
<path d="M215.195 70.9483L216.942 70.6026L219.703 64.5272L219.012 61.0378C219.012 61.0378 221.681 60.3371 222.271 64.9697C222.861 69.6023 222.971 68.3715 222.971 68.3715C222.971 68.3715 228.715 67.256 229.291 67.6617C229.71 67.9567 230.996 73.6218 231.669 76.701C232.006 78.2498 231.342 79.8861 229.968 80.5407C229.775 80.6329 229.572 80.7066 229.369 80.7481C227.94 81.0339 220.395 81.3197 220.395 81.3197L217.375 81.9189L215.2 70.9529L215.195 70.9483Z" fill="#D0EBD4"/>
<path d="M210 70.9805L213.448 82.7256L216.44 82.131L214.116 70.4136L210 70.9805Z" fill="#D0EBD4"/>
<path d="M202.924 58.5759C193.622 63.0979 182.416 59.2259 177.89 49.9239C173.368 40.6218 177.24 29.4161 186.542 24.8895C195.844 20.3676 207.049 24.2396 211.576 33.5416C216.098 42.8436 212.226 54.0494 202.924 58.5759Z" fill="#4D9447"/>
<path d="M190.105 45.9182C190.418 45.8997 190.607 45.6785 190.543 45.3512C190.497 45.1253 190.377 44.5538 190.326 44.3141C190.261 43.9868 190.183 43.9038 189.851 43.7563C189.123 43.4337 188.482 42.8713 187.998 41.871C186.588 38.967 187.496 35.3117 190.981 33.6154C194.064 32.1127 196.678 33.1775 197.904 35.6943C199.517 39.0085 199.407 42.5164 197.231 43.5765C196.028 44.162 194.645 43.6042 194.341 42.2444C193.981 40.6218 193.885 38.7227 193.373 37.6717C192.917 36.7314 192.027 36.1921 190.985 36.6991C189.754 37.2984 189.386 39.05 190.215 40.7509C190.741 41.8341 191.465 42.3919 191.465 42.3919C191.465 42.3919 192.797 48.3336 193.032 49.3707C193.497 51.4404 194.977 53.5377 195.12 53.7544C195.208 53.8834 195.397 53.8281 195.424 53.6898C195.466 53.487 196.051 50.9656 195.668 48.919C195.562 48.3382 194.94 45.3697 194.94 45.3697C195.71 45.9366 197.203 46.038 198.443 45.4342C202.136 43.6365 203.007 39.05 200.813 34.5465C199.153 31.14 194.724 29.37 190.34 31.5042C184.882 34.1593 184.034 39.4141 185.62 42.6777C186.583 44.6552 188.183 46.0472 190.109 45.9228L190.105 45.9182Z" fill="white"/>
<path d="M214.31 123.987C207.644 121.442 204.307 113.975 206.856 107.309C209.4 100.644 216.868 97.3068 223.533 99.8559C230.199 102.4 233.536 109.868 230.987 116.533C228.442 123.199 220.975 126.536 214.31 123.987Z" fill="#4D9447"/>
<path fill-rule="evenodd" clip-rule="evenodd" d="M225.663 114.113C226.907 110.591 225.105 106.696 221.569 105.346C218.075 104.014 214.185 105.659 212.719 109.033C212.682 109.126 212.641 109.218 212.604 109.315C212.138 110.536 212.042 111.804 212.263 113.002L209.769 116.012L213.807 116.243C214.545 117.109 215.503 117.81 216.642 118.243C220.233 119.617 224.243 117.838 225.603 114.274C225.626 114.219 225.644 114.164 225.663 114.109V114.113ZM217.034 117.215C215.923 116.791 215.019 116.068 214.369 115.169L212.014 115.035L213.466 113.283C213.152 112.14 213.185 110.891 213.641 109.706C213.71 109.531 213.784 109.356 213.872 109.19C215.19 106.549 218.347 105.291 221.178 106.374C224.045 107.471 225.561 110.578 224.713 113.454C224.672 113.597 224.626 113.74 224.57 113.883C223.427 116.874 220.048 118.368 217.034 117.215Z" fill="white"/>
<path fill-rule="evenodd" clip-rule="evenodd" d="M221.588 114.238C221.459 114.099 220.823 113.412 220.694 113.306C220.569 113.196 220.472 113.131 220.306 113.247C220.141 113.362 219.698 113.601 219.564 113.671C219.431 113.74 219.334 113.717 219.205 113.578C219.076 113.44 218.624 113.076 218.223 112.306C217.909 111.712 217.785 111.071 217.753 110.877C217.721 110.684 217.836 110.628 217.946 110.582C218.048 110.536 218.177 110.458 218.292 110.398C218.324 110.379 218.352 110.361 218.38 110.343C218.44 110.296 218.486 110.255 218.55 110.19C218.647 110.103 218.652 110.001 218.642 109.909C218.633 109.817 218.61 108.914 218.596 108.545C218.587 108.181 218.43 108.181 218.338 108.144C218.246 108.107 218.145 108.052 218.039 108.015C217.933 107.973 217.744 107.946 217.536 108.052C217.329 108.153 216.771 108.379 216.476 109.158C216.407 109.342 216.37 109.536 216.351 109.729C216.301 110.347 216.471 110.942 216.504 111.043C216.545 111.177 216.937 113.214 218.311 114.473C219.693 115.722 219.772 115.51 220.076 115.597C220.376 115.685 221.164 115.579 221.436 115.256C221.712 114.938 221.832 114.625 221.818 114.542C221.805 114.463 221.712 114.38 221.583 114.242L221.588 114.238Z" fill="white"/>
<path d="M49.9704 52.8846C44.5312 52.8846 40.1199 48.4732 40.1199 43.034C40.1199 37.5948 44.5312 33.1834 49.9704 33.1834C55.4097 33.1834 59.821 37.5948 59.821 43.034C59.821 48.4732 55.4097 52.8846 49.9704 52.8846Z" fill="#4D9447"/>
<path d="M44.7248 46.3298C45.679 46.9429 46.8083 47.2978 48.0252 47.2978C52.0217 47.2978 54.2803 43.919 54.1466 40.8906C54.5661 40.5863 54.9303 40.2084 55.2207 39.7751C54.8335 39.9456 54.4186 40.0609 53.9853 40.1162C54.4278 39.8488 54.7689 39.4294 54.9303 38.9269C54.5154 39.1758 54.0545 39.351 53.5612 39.4478C53.1694 39.0283 52.6071 38.7702 51.9894 38.7702C50.6019 38.7702 49.5786 40.0655 49.8921 41.4161C48.1036 41.3285 46.5133 40.4711 45.4531 39.1666C44.8907 40.1346 45.1627 41.4022 46.1215 42.043C45.7665 42.0337 45.4346 41.9369 45.1442 41.7756C45.1212 42.7713 45.8357 43.707 46.8728 43.9144C46.5686 43.9974 46.2367 44.0158 45.9002 43.9513C46.1722 44.8087 46.9696 45.431 47.91 45.4448C47.0065 46.1546 45.8633 46.4727 44.7202 46.3344L44.7248 46.3298Z" fill="white"/>
<path d="M196.175 148.292C191.805 148.292 188.265 144.752 188.265 140.383C188.265 136.013 191.805 132.473 196.175 132.473C200.545 132.473 204.085 136.013 204.085 140.383C204.085 144.752 200.545 148.292 196.175 148.292Z" fill="#455A64"/>
<path d="M194.968 145.163H196.894V140.341H198.236L198.379 138.728H196.89V137.806C196.89 137.423 196.968 137.276 197.332 137.276H198.374V135.598H197.042C195.608 135.598 194.963 136.229 194.963 137.437V138.723H193.963V140.36H194.963V145.163H194.968Z" fill="white"/>
<path d="M169.191 192L105.63 191.963C97.9878 191.963 91.7926 185.759 91.7926 178.116L91.8249 18.7695C91.8249 11.1223 98.0293 4.92244 105.676 4.92705L169.237 4.96393C176.88 4.96393 183.075 11.1683 183.075 18.8109L183.043 178.158C183.043 185.805 176.838 192.005 169.191 192Z" fill="#263238"/>
<path d="M169.173 10.6014L156.851 10.5921C155.201 10.5921 153.86 11.9934 153.86 13.7174V15.953C153.86 17.6816 152.518 19.0783 150.868 19.0783L126.848 19.0645C125.198 19.0645 123.856 17.6632 123.856 15.9346V13.699C123.856 11.9704 122.52 10.5691 120.865 10.5691H116.532L105.746 10.5599C100.389 10.5599 96.0426 14.8974 96.0426 20.2537L96.0103 175.784C96.0103 181.14 100.348 185.478 105.7 185.482L169.131 185.519C174.487 185.519 178.83 181.181 178.834 175.825L178.867 20.2906C178.867 14.9389 174.529 10.5968 169.177 10.5921L169.173 10.6014Z" fill="white"/>
<path d="M170.099 23.2361C170.099 23.2776 168.495 23.3236 166.522 23.3421C164.545 23.3605 162.941 23.3421 162.941 23.296C162.941 23.2545 164.545 23.2084 166.518 23.19C168.495 23.1715 170.099 23.19 170.099 23.2361Z" fill="#263238"/>
<path d="M170.113 25.0707C170.113 25.1121 168.509 25.1582 166.536 25.1767C164.559 25.1951 162.954 25.1767 162.954 25.1306C162.954 25.0891 164.554 25.043 166.531 25.0246C168.509 25.0061 170.113 25.0246 170.113 25.0707Z" fill="#263238"/>
<path d="M170.131 26.9006C170.131 26.9421 168.527 26.9882 166.554 27.0067C164.577 27.0251 162.973 27.0067 162.973 26.9606C162.973 26.9191 164.572 26.873 166.55 26.8545C168.527 26.8361 170.131 26.8545 170.131 26.9006Z" fill="#263238"/>
<path d="M102.699 28.6891C102.699 28.6891 102.768 28.6799 102.888 28.6753C103.035 28.6707 103.206 28.6661 103.409 28.6569C103.902 28.643 104.543 28.6292 105.335 28.6108L105.28 28.6661C105.275 28.2374 105.266 27.7718 105.257 27.2694C105.257 27.0113 105.234 26.767 105.257 26.4674C105.308 26.1677 105.575 25.905 105.902 25.8727C106.211 25.8681 106.488 25.8543 106.824 25.8681C107.17 25.9096 107.465 26.2461 107.456 26.6102C107.465 27.2602 107.47 27.9424 107.479 28.6477L107.391 28.5601C108.17 28.5509 108.986 28.5462 109.82 28.537L109.728 28.6292C109.719 27.652 109.71 26.6379 109.701 25.6008C109.701 25.3426 109.701 25.0845 109.696 24.831C109.696 24.5913 109.548 24.4346 109.355 24.2548C108.995 23.8998 108.64 23.5495 108.29 23.2084C107.944 22.8673 107.599 22.5262 107.267 22.1989C107.101 22.033 106.935 21.8717 106.769 21.7103C106.598 21.5444 106.465 21.3738 106.267 21.337C106.073 21.2862 105.865 21.3277 105.709 21.443C105.561 21.5674 105.405 21.7426 105.257 21.8855C104.957 22.1851 104.667 22.4801 104.386 22.7659C103.837 23.3375 103.266 23.8584 102.851 24.347C102.676 24.6189 102.74 24.9508 102.726 25.255C102.726 25.5547 102.726 25.8405 102.726 26.1124C102.726 26.6379 102.722 27.0989 102.717 27.4907C102.717 27.841 102.708 28.136 102.708 28.3711C102.708 28.5739 102.699 28.6845 102.694 28.6891C102.69 28.6938 102.685 28.5923 102.676 28.3987C102.671 28.1637 102.662 27.8779 102.653 27.5322C102.643 27.1357 102.634 26.6702 102.62 26.1401C102.616 25.8635 102.611 25.5731 102.602 25.2689C102.602 25.1122 102.597 24.9554 102.593 24.7895C102.593 24.6189 102.634 24.4392 102.726 24.2824C103.178 23.7339 103.713 23.2453 104.266 22.6553C104.547 22.3695 104.833 22.0745 105.133 21.7702C105.289 21.6181 105.414 21.466 105.603 21.3047C105.796 21.1572 106.064 21.1019 106.308 21.1664C106.566 21.2217 106.737 21.4338 106.893 21.5859C107.059 21.7472 107.225 21.9085 107.391 22.0745C107.728 22.4017 108.069 22.7382 108.419 23.084C108.769 23.4251 109.124 23.7754 109.484 24.1303C109.572 24.2225 109.673 24.2963 109.756 24.4253C109.834 24.5452 109.88 24.6881 109.885 24.8356C109.885 25.0937 109.885 25.3518 109.894 25.61C109.903 26.6471 109.908 27.6612 109.917 28.6384V28.7306H109.825C108.986 28.7352 108.175 28.7398 107.396 28.7445H107.308V28.6569C107.308 27.9516 107.299 27.2694 107.299 26.6195C107.308 26.3245 107.082 26.0663 106.806 26.0294C106.525 26.0156 106.197 26.0248 105.925 26.0294C105.663 26.0525 105.446 26.2599 105.4 26.4996C105.377 26.7439 105.395 27.0297 105.391 27.274C105.391 27.7765 105.391 28.242 105.391 28.6707V28.726H105.335C104.533 28.7214 103.879 28.7168 103.376 28.7122C103.178 28.7122 103.012 28.7076 102.865 28.703C102.749 28.703 102.694 28.6984 102.699 28.6938V28.6891Z" fill="#263238"/>
<path d="M144.627 150.219C144.627 150.219 144.392 150.252 143.963 150.265C143.489 150.275 142.88 150.288 142.147 150.302C140.612 150.325 138.496 150.339 136.155 150.339C133.813 150.339 131.697 150.325 130.162 150.302C129.43 150.288 128.821 150.275 128.346 150.265C127.918 150.252 127.683 150.233 127.683 150.219C127.683 150.205 127.918 150.187 128.346 150.173C128.821 150.164 129.43 150.15 130.162 150.136C131.697 150.113 133.813 150.099 136.155 150.099C138.496 150.099 140.612 150.113 142.147 150.136C142.88 150.15 143.489 150.164 143.963 150.173C144.392 150.187 144.627 150.205 144.627 150.219Z" fill="#455A64"/>
<path d="M171.265 154.391C171.265 154.455 161.507 154.511 149.472 154.511C137.436 154.511 127.678 154.455 127.678 154.391C127.678 154.326 137.436 154.271 149.472 154.271C161.507 154.271 171.265 154.326 171.265 154.391Z" fill="#455A64"/>
<path d="M157.644 158.314C157.644 158.378 150.937 158.433 142.663 158.433C134.389 158.433 127.678 158.378 127.678 158.314C127.678 158.249 134.385 158.194 142.663 158.194C150.942 158.194 157.644 158.249 157.644 158.314Z" fill="#455A64"/>
<path d="M172.127 165.947L170.772 164.587L169.482 165.873V161.987H172.132V165.942L172.127 165.947ZM170.768 164.421L170.809 164.463L172.003 165.661V162.112H169.606V165.592L170.772 164.426L170.768 164.421Z" fill="#263238"/>
<path d="M136.067 165.445L135.588 165.232C135.357 165.357 135.154 165.421 134.97 165.421C134.237 165.426 133.638 164.836 133.633 164.103C133.629 163.37 134.219 162.771 134.952 162.766C135.685 162.762 136.284 163.352 136.288 164.085C136.288 164.412 136.173 164.725 135.956 164.97L136.067 165.449V165.445ZM134.952 162.854C134.269 162.859 133.721 163.416 133.725 164.099C133.73 164.781 134.288 165.329 134.97 165.325C135.145 165.325 135.339 165.26 135.565 165.136L135.583 165.126L135.933 165.283L135.855 164.937L135.869 164.919C136.081 164.689 136.196 164.389 136.192 164.08C136.187 163.398 135.629 162.849 134.947 162.854H134.952Z" fill="#263238"/>
<path d="M139.137 165.237L138.589 163.9L137.561 162.965L140.05 162.946L139.132 165.237H139.137ZM137.796 163.052L138.671 163.854L139.137 164.993L139.921 163.034L137.796 163.052Z" fill="#263238"/>
<path d="M140.001 162.957L138.641 163.842L138.691 163.919L140.051 163.034L140.001 162.957Z" fill="#263238"/>
<path d="M132.144 163.246C132.075 162.891 131.72 162.614 131.356 162.628C130.997 162.642 130.669 162.942 130.623 163.296C130.568 162.942 130.241 162.647 129.881 162.637C129.517 162.628 129.171 162.914 129.107 163.269C129.061 163.527 129.148 163.799 129.296 164.02C129.443 164.241 129.641 164.417 129.84 164.592C130.116 164.836 130.374 165.067 130.651 165.311C130.923 165.062 131.158 164.827 131.43 164.578C131.624 164.398 131.822 164.218 131.965 163.997C132.108 163.776 132.195 163.504 132.14 163.246H132.144Z" fill="#4D9447"/>
<path d="M174.902 169.39C174.902 169.39 174.898 169.243 174.893 168.957C174.893 168.667 174.889 168.247 174.884 167.694C174.884 166.583 174.875 164.947 174.865 162.826C174.856 158.59 174.842 152.427 174.824 144.697L174.902 144.775C157.165 144.785 130.692 144.798 101.187 144.817H101.182L101.302 144.697C101.302 153.28 101.302 161.605 101.302 169.39L101.187 169.275C122.409 169.298 140.82 169.317 153.934 169.33C160.498 169.344 165.729 169.353 169.334 169.363C171.132 169.367 172.519 169.376 173.464 169.376C173.934 169.376 174.289 169.381 174.534 169.386C174.773 169.386 174.902 169.395 174.902 169.395C174.902 169.395 174.787 169.399 174.547 169.404C174.303 169.404 173.953 169.404 173.492 169.413C172.551 169.413 171.173 169.423 169.385 169.427C165.789 169.436 160.562 169.446 154.012 169.459C140.879 169.473 122.437 169.492 101.182 169.515H101.067V169.399C101.067 161.614 101.067 153.289 101.067 144.706V144.586H101.191C130.697 144.605 157.17 144.619 174.907 144.628H174.985V144.706C174.967 152.459 174.953 158.636 174.944 162.886C174.935 164.997 174.93 166.629 174.925 167.735C174.925 168.279 174.921 168.699 174.916 168.985C174.916 169.266 174.907 169.404 174.907 169.404L174.902 169.39Z" fill="#263238"/>
<path d="M104.255 148.828L104.161 165.155L124.581 165.273L124.675 148.946L104.255 148.828Z" fill="#EBEBEB"/>
<path d="M124.668 148.938C124.668 148.938 124.631 148.938 124.566 148.942C124.493 148.942 124.396 148.942 124.276 148.942C124.009 148.942 123.64 148.942 123.16 148.947C122.179 148.947 120.763 148.947 118.975 148.952C115.384 148.942 110.295 148.933 104.248 148.924L104.354 148.818C104.331 153.676 104.303 159.249 104.275 165.14C104.298 165.168 104.049 164.914 104.16 165.02H104.165H104.174H104.197H104.243H104.331H104.506H104.861L105.566 165.025C106.036 165.025 106.502 165.03 106.963 165.034C107.889 165.039 108.806 165.043 109.714 165.053C111.526 165.067 113.296 165.076 115.011 165.085C118.44 165.108 121.658 165.131 124.576 165.154L124.474 165.256C124.525 160.356 124.566 156.285 124.594 153.432C124.612 152.012 124.626 150.892 124.64 150.118C124.649 149.744 124.654 149.449 124.659 149.242C124.663 149.044 124.672 148.933 124.672 148.933C124.672 148.933 124.677 149.025 124.682 149.219C124.682 149.426 124.682 149.712 124.686 150.076C124.686 150.846 124.686 151.957 124.695 153.368C124.695 156.239 124.686 160.328 124.682 165.256V165.357H124.58C121.662 165.343 118.445 165.334 115.015 165.315C113.301 165.306 111.531 165.297 109.719 165.288C108.811 165.283 107.894 165.279 106.967 165.274C106.502 165.274 106.036 165.269 105.57 165.265H104.865L104.51 165.26H104.335H104.248H104.201H104.178H104.169H104.165C104.271 165.366 104.012 165.113 104.04 165.136C104.077 159.24 104.114 153.672 104.146 148.813V148.707H104.252C110.328 148.763 115.439 148.813 119.049 148.846C120.828 148.869 122.234 148.887 123.211 148.896C123.681 148.906 124.045 148.91 124.304 148.915C124.419 148.915 124.511 148.919 124.58 148.924C124.64 148.924 124.672 148.929 124.668 148.929V148.938Z" fill="#263238"/>
<path d="M104.954 149.86L104.872 164.131L123.859 164.241L123.941 149.97L104.954 149.86Z" fill="#E0E0E0"/>
<path d="M104.865 164.122L111.549 155.29L115.624 160.863L118.426 157.913L123.852 164.232L104.865 164.122Z" fill="#F5F5F5"/>
<path d="M117.408 154.239C117.403 155.064 116.73 155.728 115.905 155.723C115.08 155.718 114.416 155.045 114.421 154.22C114.425 153.395 115.098 152.731 115.923 152.736C116.749 152.741 117.412 153.414 117.408 154.239Z" fill="#F5F5F5"/>
<path d="M138.685 43.034C138.685 43.034 138.612 43.0524 138.469 43.057C138.298 43.0617 138.091 43.0709 137.842 43.0801C137.261 43.0893 136.482 43.1031 135.542 43.117C133.601 43.14 130.918 43.1538 127.954 43.1538C124.99 43.1538 122.308 43.14 120.367 43.117C119.427 43.1031 118.648 43.0893 118.067 43.0801C117.818 43.0709 117.611 43.0617 117.44 43.057C117.297 43.0478 117.223 43.0432 117.223 43.034C117.223 43.0248 117.297 43.0156 117.44 43.011C117.611 43.0063 117.818 42.9971 118.067 42.9879C118.648 42.9787 119.427 42.9649 120.367 42.951C122.308 42.928 124.99 42.9142 127.954 42.9142C130.918 42.9142 133.601 42.928 135.542 42.951C136.482 42.9649 137.261 42.9787 137.842 42.9879C138.091 42.9971 138.298 43.0063 138.469 43.011C138.612 43.0202 138.685 43.0248 138.685 43.034Z" fill="#263238"/>
<path d="M168.85 133.279L166.836 131.26L164.918 133.173L164.927 127.393H168.855L168.845 133.279H168.85ZM166.84 131.011L166.905 131.076L168.675 132.855L168.684 127.582H165.112L165.102 132.749L166.84 131.016V131.011Z" fill="#263238"/>
<path d="M117.749 132.671L116.808 132.251C116.352 132.496 115.956 132.62 115.592 132.62C114.149 132.629 112.969 131.468 112.959 130.03C112.946 128.587 114.112 127.407 115.55 127.398C116.988 127.384 118.173 128.55 118.182 129.988C118.187 130.629 117.956 131.246 117.532 131.73L117.749 132.671ZM115.55 127.577C114.209 127.586 113.125 128.688 113.135 130.03C113.144 131.371 114.246 132.454 115.587 132.445C115.933 132.445 116.315 132.32 116.758 132.076L116.795 132.053L117.486 132.362L117.329 131.68L117.362 131.647C117.776 131.191 118.002 130.606 117.998 129.993C117.988 128.651 116.887 127.568 115.545 127.577H115.55Z" fill="#263238"/>
<path d="M123.796 132.27L122.718 129.638L120.694 127.794L125.599 127.752L123.796 132.265V132.27ZM121.155 127.969L122.879 129.55L123.796 131.79L125.336 127.937L121.155 127.969Z" fill="#263238"/>
<path d="M125.504 127.748L122.831 129.488L122.929 129.639L125.602 127.899L125.504 127.748Z" fill="#263238"/>
<path d="M110.032 128.342C109.894 127.642 109.198 127.098 108.484 127.126C107.778 127.153 107.133 127.743 107.041 128.444C106.935 127.743 106.285 127.167 105.575 127.149C104.861 127.13 104.178 127.688 104.049 128.393C103.957 128.905 104.132 129.435 104.423 129.868C104.713 130.302 105.105 130.652 105.497 130.993C106.045 131.477 106.548 131.929 107.096 132.413C107.635 131.919 108.092 131.459 108.631 130.97C109.014 130.62 109.406 130.265 109.687 129.827C109.968 129.389 110.138 128.854 110.037 128.347L110.032 128.342Z" fill="#4D9447"/>
<path d="M109.585 46.3621C111.423 46.3621 112.913 44.872 112.913 43.034C112.913 41.1959 111.423 39.7059 109.585 39.7059C107.747 39.7059 106.257 41.1959 106.257 43.034C106.257 44.872 107.747 46.3621 109.585 46.3621Z" fill="#EBEBEB"/>
<path d="M167.596 114.196C167.596 114.26 153.648 114.316 136.445 114.316C119.242 114.316 105.289 114.26 105.289 114.196C105.289 114.131 119.233 114.076 136.445 114.076C153.657 114.076 167.596 114.131 167.596 114.196Z" fill="#455A64"/>
<path d="M167.596 109.01C167.596 109.075 153.648 109.13 136.445 109.13C119.242 109.13 105.289 109.075 105.289 109.01C105.289 108.946 119.233 108.89 136.445 108.89C153.657 108.89 167.596 108.946 167.596 109.01Z" fill="#455A64"/>
<path d="M139.202 119.455C139.202 119.52 131.61 119.575 122.248 119.575C112.886 119.575 105.289 119.52 105.289 119.455C105.289 119.391 112.881 119.335 122.248 119.335C131.614 119.335 139.202 119.391 139.202 119.455Z" fill="#455A64"/>
<path d="M135.021 175.982C135.021 176.724 134.421 177.323 133.693 177.319C132.96 177.319 132.37 176.71 132.375 175.968C132.375 175.226 132.974 174.627 133.702 174.631C134.435 174.631 135.025 175.24 135.021 175.982Z" fill="#263238"/>
<path d="M139.119 176C139.119 176.742 138.519 177.342 137.791 177.337C137.058 177.337 136.468 176.729 136.473 175.987C136.473 175.244 137.072 174.645 137.8 174.65C138.533 174.65 139.123 175.258 139.119 176Z" fill="#263238"/>
<path d="M143.221 176.019C143.221 176.761 142.622 177.36 141.894 177.356C141.161 177.356 140.571 176.747 140.575 176.005C140.575 175.263 141.174 174.664 141.903 174.668C142.636 174.668 143.226 175.277 143.221 176.019Z" fill="#263238"/>
<path d="M175.345 49.6164H101.625V94.6975H175.345V49.6164Z" fill="#E0E0E0"/>
<path d="M108.433 94.7067L129.554 66.4319L142.654 84.1141L151.527 74.6599L168.938 94.6883L108.433 94.7067Z" fill="#F5F5F5"/>
<path d="M148.204 62.9656C148.204 65.5976 146.074 67.7318 143.442 67.7318C140.81 67.7318 138.676 65.6022 138.676 62.9702C138.676 60.3381 140.806 58.2039 143.438 58.2039C146.07 58.2039 148.204 60.3335 148.204 62.9656Z" fill="#F5F5F5"/>
<path d="M175.147 136.598C175.147 135.635 175.101 94.905 175.036 34.617L175.147 34.7276C152.915 34.7276 127.858 34.7368 101.436 34.7368H101.427L101.546 34.617C101.537 72.7562 101.533 108.051 101.523 136.598L101.427 136.501C146.13 136.561 174.34 136.598 175.147 136.598C174.345 136.598 146.134 136.635 101.427 136.695H101.33V136.598C101.325 108.051 101.316 72.7562 101.307 34.617V34.4972H101.427H101.436C127.858 34.4972 152.915 34.5064 175.147 34.5064H175.257V34.617C175.234 64.791 175.216 90.3001 175.202 108.263C175.188 117.234 175.179 124.323 175.174 129.168C175.17 131.583 175.165 133.445 175.16 134.699C175.16 135.321 175.156 135.796 175.156 136.119C175.156 136.437 175.151 136.594 175.151 136.594L175.147 136.598Z" fill="#263238"/>
<path d="M140.506 149.247L142.138 143.766C142.424 142.577 142.802 141.175 143.309 139.576C143.765 138.138 144.94 136.626 146.01 135.538C147.674 133.846 148.467 133.832 149.587 132.934C149.688 132.869 149.803 132.777 149.9 132.722C150.131 132.597 150.301 132.431 150.444 132.251C151.408 131.21 150.481 129.596 148.522 129.748C147.047 129.864 144.645 130.288 140.732 134.321C140.681 134.381 140.631 134.432 140.584 134.496C138.533 137.165 136.606 129.55 136.256 126.715C136.03 124.876 134.044 123.747 132.241 124.411L122.718 128.863C121.93 128.587 120.999 128.633 119.938 128.956C118.537 129.472 117.758 130.915 118.122 132.316L121.985 147.735L110.641 185.482H135.094L140.506 149.237V149.247Z" fill="#FFBE9D"/>
<path d="M159.294 114.578L151.735 129.389L147.955 128.338L128.955 143.794C127.337 145.107 124.967 144.9 123.608 143.319L116.375 134.911C116.375 134.911 130.96 128.628 133.656 123.429C136.353 118.229 133.237 117.049 133.237 117.049L140.1 109.25L159.29 114.578H159.294Z" fill="#4D9447"/>
<path d="M149.49 84.3215C149.49 84.3215 138.427 81.8738 122.856 66.9021C107.285 51.9304 99.9699 32.0449 98.0662 32.1417C96.1625 32.2385 87.8377 28.3757 72.0132 62.8042C56.1841 97.2328 62.4207 105.23 65.569 105.166C68.7174 105.101 90.1055 99.1411 103.459 100.658C116.818 102.174 133.988 109.139 133.988 109.139L149.495 84.3215H149.49Z" fill="#4D9447"/>
<path d="M172.994 103.087L169.219 110.264L167.527 113.477C165.209 117.888 159.843 119.709 155.316 117.625L131.6 109.36L145.411 77.8313L169.104 90.4568C173.653 92.8814 175.386 98.5234 172.989 103.082L172.994 103.087Z" fill="#4D9447"/>
<g opacity="0.4">
<path d="M172.994 103.087L169.219 110.264L167.527 113.477C165.209 117.888 159.843 119.709 155.316 117.625L131.6 109.36L145.411 77.8313L169.104 90.4568C173.653 92.8814 175.386 98.5234 172.989 103.082L172.994 103.087Z" fill="black"/>
</g>
<path d="M73.2854 63.4311C64.8638 82.0813 61.3559 98.7032 65.4538 100.552C69.5517 102.405 79.7018 88.7835 88.1234 70.1334C96.545 51.4833 100.053 34.8613 95.955 33.0129C91.8572 31.1599 81.707 44.781 73.2854 63.4311Z" fill="#4D9447"/>
<g opacity="0.5">
<path d="M73.2854 63.4311C64.8638 82.0813 61.3559 98.7032 65.4538 100.552C69.5517 102.405 79.7018 88.7835 88.1234 70.1334C96.545 51.4833 100.053 34.8613 95.955 33.0129C91.8572 31.1599 81.707 44.781 73.2854 63.4311Z" fill="black"/>
</g>
<path d="M175.031 113.458L168.601 111.439L172.579 103.875L177.401 106.871L175.031 113.458Z" fill="#4D9447"/>
<g opacity="0.6">
<path d="M172.579 103.875L168.601 111.439L169.924 111.854L173.155 104.235L172.579 103.875Z" fill="black"/>
</g>
<path d="M168.149 105.622C168.057 105.83 164.849 104.585 160.986 102.838C157.119 101.091 154.067 99.5099 154.159 99.2978C154.252 99.0904 157.46 100.335 161.323 102.082C165.185 103.829 168.242 105.41 168.149 105.617V105.622Z" fill="#4D9447"/>
<path d="M170.127 101.114C170.025 101.321 167.121 100.095 163.641 98.3806C160.161 96.6658 157.418 95.1124 157.52 94.905C157.621 94.7022 160.521 95.9237 164.005 97.6384C167.486 99.3532 170.224 100.907 170.127 101.109V101.114Z" fill="#4D9447"/>
<path d="M165.656 110.347C165.623 110.458 164.858 110.282 163.641 109.904C163.033 109.715 162.314 109.48 161.512 109.204C160.719 108.918 159.898 108.498 159.013 108.102C155.496 106.47 152.814 104.871 152.901 104.682C153.007 104.456 155.874 105.737 159.359 107.351C160.235 107.747 161.042 108.185 161.807 108.503C162.572 108.812 163.263 109.102 163.835 109.356C164.983 109.867 165.683 110.241 165.651 110.347H165.656Z" fill="#4D9447"/>
<path d="M90.4559 59.2826C90.4559 59.2826 80.8404 53.3178 75.5763 66.3121C70.3168 79.3063 80.4348 81.4405 80.4348 81.4405C84.5741 75.0195 87.9391 67.6627 90.4559 59.2826Z" fill="#4D9447"/>
<g opacity="0.5">
<path d="M100.684 43.7992C100.74 43.8084 100.606 44.6934 100.306 46.2837C100.002 47.8694 99.5735 50.1741 98.9558 53.0044C98.5502 54.3965 98.1031 55.9176 97.6283 57.5494C97.3886 58.3653 97.1397 59.2134 96.8816 60.08C96.7525 60.5133 96.6234 60.9558 96.4897 61.4029C96.3468 61.8455 96.1579 62.2834 95.9919 62.7305C95.3005 64.519 94.5722 66.3951 93.8208 68.3357C93.6318 68.8197 93.4428 69.3129 93.2492 69.8061C93.0603 70.3039 92.7975 70.7695 92.5716 71.2581C92.1015 72.2261 91.6267 73.2125 91.1427 74.2036C90.6587 75.1992 90.1793 76.1811 89.7091 77.1491C89.4648 77.6285 89.2574 78.1263 88.9854 78.578C88.7135 79.0344 88.4507 79.4861 88.1834 79.9378C87.1232 81.7309 86.0953 83.4641 85.118 85.1143C84.8691 85.5246 84.6433 85.9394 84.3805 86.3266C84.1086 86.7092 83.8458 87.0872 83.5831 87.456C83.0576 88.1981 82.5459 88.9172 82.0527 89.6132C81.0617 90.9961 80.1398 92.2914 79.2962 93.4714C77.457 95.6978 75.9174 97.4586 74.8572 98.6756C73.7924 99.8925 73.1794 100.542 73.1379 100.51C73.0918 100.473 73.6219 99.7496 74.6083 98.4727C75.6363 97.1728 77.0744 95.3429 78.8445 93.1026C79.6558 91.9088 80.5454 90.6089 81.4996 89.2122C81.979 88.5162 82.4722 87.7925 82.9838 87.0503C83.2374 86.6816 83.5001 86.3036 83.7628 85.921C84.0164 85.5338 84.2376 85.1143 84.4773 84.7087C85.4361 83.0631 86.441 81.3345 87.4781 79.546C87.7409 79.0989 88.0036 78.6472 88.2663 78.1908C88.5383 77.7391 88.7365 77.2459 88.9808 76.7665C89.4464 75.8031 89.9212 74.8259 90.4006 73.8394C90.8799 72.853 91.3547 71.8758 91.8249 70.917C92.0508 70.433 92.3135 69.9674 92.5025 69.4788C92.6961 68.9902 92.8851 68.5016 93.0787 68.0222C93.8439 66.1 94.5768 64.2424 95.282 62.4723C95.4526 62.0298 95.6462 61.5965 95.7937 61.1586C95.932 60.7161 96.0657 60.2782 96.1993 59.8495C96.4667 58.9875 96.7294 58.1532 96.983 57.3466C97.49 55.7332 97.9648 54.2305 98.3981 52.8523C99.0665 50.0819 99.6104 47.8233 99.9976 46.2146C100.389 44.6473 100.634 43.7853 100.689 43.7946L100.684 43.7992Z" fill="black"/>
</g>
<g opacity="0.4">
<path d="M118.68 133.883C119.556 135.473 120.455 137.091 121.75 138.364C123.05 139.636 124.829 140.539 126.641 140.355C128.448 140.171 130.162 138.672 130.181 136.852C131.047 137.506 132.379 137.151 133.099 136.335C133.818 135.519 134.053 134.39 134.136 133.307C135.316 134.003 136.957 133.45 137.74 132.33C138.529 131.21 138.575 129.702 138.197 128.384C137.814 127.07 137.054 125.904 136.302 124.756C137.21 124.83 138.174 124.895 138.985 124.48C139.796 124.069 140.345 122.995 139.87 122.216C139.593 121.76 139.059 121.534 138.547 121.373C137.123 120.926 136.127 120.571 134.643 120.741C134.297 120.741 135.237 124.65 125.94 129.988C120.45 133.141 118.671 133.869 118.671 133.869L118.68 133.883Z" fill="black"/>
</g>
<path d="M139.616 139.521C139.612 139.562 138.99 139.447 137.989 139.47C136.994 139.493 135.597 139.71 134.219 140.373C132.84 141.032 131.799 141.982 131.153 142.747C130.503 143.512 130.208 144.07 130.172 144.047C130.158 144.038 130.218 143.895 130.351 143.641C130.485 143.393 130.706 143.042 131.02 142.637C131.637 141.83 132.693 140.834 134.113 140.152C135.528 139.474 136.966 139.276 137.985 139.295C138.496 139.304 138.907 139.35 139.188 139.401C139.469 139.451 139.621 139.498 139.616 139.511V139.521Z" fill="#EB996E"/>
<path d="M119.288 131.408C120.787 132.846 121.81 134.436 123.382 135.884C124.096 136.543 125.202 137.787 126.161 137.953C127.12 138.119 127.733 137.99 128.111 137.096C128.42 136.372 127.867 135.381 127.489 134.787C126.489 133.215 125.53 131.989 124.783 130.767C124.433 130.195 124.884 130.076 125.05 130.343C125.769 131.09 126.848 131.74 127.493 132.551C128.378 133.666 128.54 135.142 130.849 134.671C131.153 134.611 131.462 134.505 131.706 134.316C132.578 133.648 132.615 132.491 132.246 131.565C131.96 130.836 131.453 130.219 130.96 129.615C131.946 130.726 133.02 131.896 134.583 132.025C135.491 132.099 136.408 131.675 136.777 130.841C137.238 129.79 136.574 128.771 135.91 127.951C134.73 126.494 133.412 125.148 131.978 123.936C131.444 123.484 130.766 123.23 130.065 123.226C129.254 123.221 128.24 123.373 127.742 124.079C126.834 125.355 127.115 126.489 127.115 126.489C127.115 126.489 125.083 125.462 123.451 126.536C121.819 127.614 121.413 129.463 121.413 129.463L119.288 131.408Z" fill="#FFBE9D"/>
<path d="M130.093 122.779C129.466 122.147 129.319 120.99 129.807 120.031C130.153 119.354 130.586 118.695 131.029 118.547C132.96 117.897 141.4 119.354 141.327 121.23C141.248 123.152 140.635 124 136.053 123.337C135.247 123.221 133.984 123.06 133.984 123.06L132.877 124.719L130.098 122.774L130.093 122.779Z" fill="#FFBE9D"/>
<path d="M131.605 130.62C131.536 130.661 130.895 129.352 129.586 128.177C128.286 126.987 126.922 126.476 126.954 126.406C126.963 126.379 127.318 126.471 127.848 126.72C128.378 126.969 129.079 127.398 129.747 128.001C130.411 128.605 130.909 129.26 131.204 129.767C131.504 130.269 131.628 130.615 131.605 130.624V130.62Z" fill="#EB996E"/>
<path d="M133.025 124.867C132.983 124.908 132.426 124.452 131.665 123.986C131.287 123.756 130.937 123.558 130.674 123.443C130.411 123.318 130.241 123.286 130.241 123.249C130.241 123.217 130.439 123.194 130.734 123.281C131.029 123.364 131.402 123.544 131.794 123.784C132.573 124.258 133.085 124.816 133.025 124.867Z" fill="#EB996E"/>
<path d="M134.445 123.124C134.44 123.175 133.702 123.198 132.817 122.94C132.379 122.806 132.006 122.594 131.776 122.396C131.545 122.198 131.448 122.032 131.471 122.014C131.518 121.972 132.038 122.47 132.887 122.71C133.725 122.954 134.454 123.042 134.44 123.12L134.445 123.124Z" fill="#EB996E"/>
<path d="M126.24 132.943C126.212 132.961 125.912 132.583 125.47 131.942C125.018 131.32 124.442 130.389 123.502 129.702C122.561 129.015 121.455 128.854 120.713 128.965C119.957 129.071 119.56 129.384 119.537 129.338C119.528 129.329 119.616 129.241 119.805 129.126C119.994 129.006 120.293 128.877 120.685 128.799C121.459 128.637 122.644 128.785 123.644 129.509C124.64 130.237 125.198 131.205 125.617 131.85C126.023 132.514 126.272 132.924 126.244 132.943H126.24Z" fill="#EB996E"/>
<path d="M132.698 151.611C132.707 151.676 131.158 151.897 129.25 152.109C127.337 152.317 125.779 152.432 125.774 152.367C125.765 152.303 127.309 152.082 129.222 151.869C131.135 151.662 132.688 151.547 132.698 151.611Z" fill="#EB996E"/>
</svg>
