<svg width="276" height="195" viewBox="0 0 276 195" fill="none" xmlns="http://www.w3.org/2000/svg">
<path fill-rule="evenodd" clip-rule="evenodd" d="M182.95 180.075C213.248 175.846 211.566 170.136 236.622 136.805C261.677 103.473 236.622 29.0085 211.566 19.7871C186.51 10.5657 125.089 9.10105 75.0448 40.3307C25.0007 71.5603 21.4625 89.1363 34.3643 112.97C40.0824 123.534 58.3805 149.877 101.744 165.319C123.607 173.105 152.653 184.303 182.95 180.075Z" fill="#4D9447" fill-opacity="0.5"/>
<path d="M250.858 97.4488L207.832 107.279L214.458 136.281L257.484 126.451L250.858 97.4488Z" fill="#D0EBD4"/>
<path d="M251.078 97.7522C251.078 97.7522 250.981 97.9264 250.763 98.2313C250.521 98.5652 250.202 99.0055 249.805 99.5571C248.934 100.733 247.715 102.373 246.22 104.386C243.137 108.47 238.918 114.064 234.239 120.258L234.142 120.388L233.992 120.316C233.881 120.262 233.755 120.204 233.634 120.142C226.569 116.711 220.177 113.609 215.503 111.34C213.219 110.212 211.361 109.288 210.03 108.63C209.415 108.315 208.922 108.064 208.549 107.875C208.215 107.701 208.041 107.599 208.046 107.59C208.051 107.575 208.24 107.652 208.583 107.802C208.965 107.977 209.469 108.204 210.093 108.49C211.438 109.119 213.316 110.004 215.624 111.083C220.312 113.324 226.719 116.391 233.803 119.779C233.924 119.837 234.05 119.895 234.161 119.953L233.914 120.011C238.627 113.846 242.881 108.277 245.987 104.212C247.526 102.233 248.779 100.617 249.675 99.4603C250.096 98.9281 250.434 98.5022 250.691 98.1829C250.928 97.8926 251.054 97.7474 251.068 97.7522H251.078Z" fill="#E0E0E0"/>
<path d="M214.68 136.584C214.583 136.535 216.911 131.818 219.877 126.055C222.848 120.287 225.33 115.656 225.432 115.709C225.529 115.758 223.201 120.475 220.235 126.238C217.269 132.002 214.782 136.637 214.68 136.584Z" fill="#E0E0E0"/>
<path d="M239.648 112.075C239.716 111.988 243.82 115.206 248.804 119.256C253.792 123.311 257.775 126.664 257.707 126.751C257.639 126.838 253.541 123.621 248.552 119.571C243.568 115.52 239.581 112.162 239.648 112.08V112.075Z" fill="#E0E0E0"/>
<path d="M59.1898 18.5931L55.244 35.6843L80.6003 41.5383L84.5461 24.447L59.1898 18.5931Z" fill="#D0EBD4"/>
<path d="M84.5831 24.6761C84.5831 24.6761 84.4863 24.7438 84.2928 24.8503C84.0799 24.9664 83.7944 25.1164 83.446 25.3052C82.6814 25.7019 81.6121 26.2584 80.3007 26.9455C77.6152 28.3197 73.9377 30.2021 69.8634 32.2828L69.7763 32.3263L69.7182 32.2489C69.6746 32.1908 69.6214 32.1279 69.573 32.065C66.7084 28.4262 64.1148 25.1358 62.218 22.7309C61.2986 21.5454 60.5486 20.5776 60.0115 19.8857C59.7647 19.5615 59.5712 19.3002 59.4211 19.1066C59.2905 18.9276 59.2228 18.8308 59.2276 18.826C59.2324 18.8211 59.3147 18.9082 59.4599 19.0776C59.6195 19.2663 59.8276 19.5179 60.0841 19.8324C60.6357 20.5147 61.4051 21.4631 62.3486 22.6293C64.26 25.0245 66.8681 28.3004 69.7569 31.9198C69.8053 31.9827 69.8585 32.0457 69.9021 32.1037L69.7569 32.0698C73.8409 30.0133 77.5329 28.1504 80.2281 26.7955C81.554 26.1423 82.6331 25.6052 83.4073 25.2229C83.7702 25.0487 84.0557 24.9132 84.2783 24.8068C84.4767 24.7148 84.5831 24.6664 84.5879 24.6761H84.5831Z" fill="#E0E0E0"/>
<path d="M55.284 35.907C55.2453 35.8538 57.6937 33.9522 60.7518 31.6585C63.81 29.3649 66.3213 27.5455 66.3601 27.5988C66.3988 27.652 63.9503 29.5537 60.8922 31.8473C57.834 34.1409 55.3227 35.9603 55.284 35.907Z" fill="#E0E0E0"/>
<path d="M74.8377 29.3311C74.8958 29.302 76.2458 32.065 77.8474 35.4957C79.4491 38.9313 80.7024 41.733 80.6443 41.762C80.5862 41.7911 79.2362 39.0281 77.6345 35.5974C76.0329 32.1666 74.7796 29.3601 74.8425 29.3311H74.8377Z" fill="#E0E0E0"/>
<path d="M219.922 22.8793L201.396 30.8387L206.762 43.3271L225.288 35.3678L219.922 22.8793Z" fill="#D0EBD4"/>
<path d="M220.042 22.9825C220.042 22.9825 220.013 23.0696 219.94 23.2245C219.858 23.3938 219.751 23.6164 219.621 23.8971C219.325 24.4971 218.914 25.3342 218.406 26.36C217.356 28.4504 215.919 31.3102 214.332 34.4796L214.298 34.5473L214.225 34.528C214.172 34.5135 214.109 34.4941 214.051 34.4796C210.596 33.5215 207.465 32.6505 205.177 32.0166C204.059 31.6973 203.144 31.436 202.496 31.2521C202.196 31.1602 201.954 31.0876 201.77 31.0344C201.606 30.9811 201.518 30.9521 201.518 30.9473C201.518 30.9424 201.61 30.9618 201.78 31.0005C201.964 31.0489 202.21 31.1069 202.515 31.1844C203.173 31.3586 204.088 31.6005 205.215 31.8957C207.504 32.515 210.64 33.3667 214.099 34.3054C214.158 34.3199 214.22 34.3393 214.274 34.3538L214.167 34.4022C215.779 31.2424 217.23 28.3923 218.29 26.3068C218.817 25.2907 219.248 24.4632 219.558 23.868C219.703 23.5922 219.819 23.3745 219.911 23.21C219.993 23.06 220.037 22.9825 220.046 22.9874L220.042 22.9825Z" fill="#E0E0E0"/>
<path d="M206.885 43.4314C206.836 43.4169 207.494 41.104 208.351 38.2732C209.212 35.4377 209.948 33.1489 209.996 33.1683C210.044 33.1828 209.386 35.4909 208.525 38.3265C207.664 41.162 206.928 43.446 206.88 43.4314H206.885Z" fill="#E0E0E0"/>
<path d="M216.088 30.3618C216.112 30.3182 218.217 31.4263 220.792 32.8344C223.366 34.2473 225.432 35.4232 225.408 35.4667C225.384 35.5103 223.279 34.4022 220.704 32.9941C218.13 31.586 216.064 30.4053 216.088 30.3618Z" fill="#E0E0E0"/>
<path d="M223.286 66.2224H51.323C47.4292 66.2224 44.2728 69.3788 44.2728 73.2726V182.214C44.2728 186.108 47.4292 189.264 51.323 189.264H223.286C227.179 189.264 230.336 186.108 230.336 182.214V73.2726C230.336 69.3788 227.179 66.2224 223.286 66.2224Z" fill="#455A64"/>
<path d="M37 181.314H238.581V183.467C238.581 188.219 234.725 192.081 229.968 192.081H45.6131C40.8614 192.081 37 188.224 37 183.467V181.314Z" fill="#455A64"/>
<path d="M224.819 71.1096H49.2664V175.014H224.819V71.1096Z" fill="#263238"/>
<path d="M118.96 180.162L121.462 184.14H156.66L158.982 180.162H118.96Z" fill="#263238"/>
<path d="M54.4634 74.6274H219.981C220.856 74.6274 221.563 75.3387 221.563 76.2097V173.098C221.563 173.974 220.852 174.68 219.981 174.68H54.4634C53.5875 174.68 52.8811 173.969 52.8811 173.098V76.2097C52.8811 75.3339 53.5924 74.6274 54.4634 74.6274Z" fill="#EBEBEB"/>
<path d="M221.384 174.83H52.702L52.8811 82.1034H221.384V174.83Z" fill="#FAFAFA"/>
<path d="M66.7153 78.4937C66.7153 79.2388 66.1104 79.8389 65.3701 79.8389C64.6298 79.8389 64.0249 79.234 64.0249 78.4937C64.0249 77.7533 64.6298 77.1485 65.3701 77.1485C66.1104 77.1485 66.7153 77.7533 66.7153 78.4937Z" fill="#263238"/>
<path d="M58.5522 78.4937C58.5522 79.2388 57.9473 79.8389 57.207 79.8389C56.4666 79.8389 55.8618 79.234 55.8618 78.4937C55.8618 77.7533 56.4666 77.1485 57.207 77.1485C57.9473 77.1485 58.5522 77.7533 58.5522 78.4937Z" fill="#263238"/>
<path d="M62.4716 78.4937C62.4716 79.2388 61.8668 79.8389 61.1264 79.8389C60.3861 79.8389 59.7812 79.234 59.7812 78.4937C59.7812 77.7533 60.3861 77.1485 61.1264 77.1485C61.8668 77.1485 62.4716 77.7533 62.4716 78.4937Z" fill="#263238"/>
<path d="M228.734 180.162C228.734 180.23 187.439 180.283 136.506 180.283C85.5722 180.283 44.2679 180.23 44.2679 180.162C44.2679 180.095 85.5577 180.041 136.506 180.041C187.454 180.041 228.734 180.095 228.734 180.162Z" fill="#263238"/>
<path d="M106.897 118.327L175.521 117.688L177.534 164.339L106.471 163.831L106.897 118.327Z" fill="#4D9447"/>
<path d="M106.897 118.327L139.322 91.9795C140.696 90.8617 142.661 90.8666 144.035 91.9843L175.526 117.688" fill="#4D9447"/>
<g opacity="0.3">
<path d="M106.897 118.327L139.322 91.9795C140.696 90.8617 142.661 90.8666 144.035 91.9843L175.526 117.688" fill="black"/>
</g>
<path d="M106.471 163.831C106.384 163.749 111.866 157.739 118.713 150.408C125.56 143.073 131.183 137.194 131.265 137.276C131.352 137.358 125.87 143.363 119.023 150.699C112.176 158.03 106.558 163.909 106.471 163.831Z" fill="#263238"/>
<path d="M177.534 164.339C177.447 164.417 172.086 158.552 165.558 151.236C159.031 143.92 153.81 137.929 153.897 137.852C153.984 137.774 159.345 143.639 165.873 150.955C172.4 158.267 177.621 164.262 177.534 164.339Z" fill="#263238"/>
<g opacity="0.5">
<path d="M175.521 117.688L141.117 145.289L106.897 118.327" fill="black"/>
</g>
<path d="M110.357 120.867L110.207 99.4362L170.295 98.599L171.021 121.153L141.112 144.926L110.357 120.867Z" fill="#FAFAFA"/>
<path d="M110.357 120.867C110.357 120.867 110.555 121.013 110.928 121.293C111.3 121.584 111.852 122.004 112.568 122.556C114.005 123.669 116.105 125.3 118.786 127.385C124.152 131.566 131.841 137.561 141.18 144.839H141.054C149.667 137.982 159.887 129.848 170.949 121.046L170.9 121.148C170.76 116.846 170.615 112.332 170.47 107.74C170.373 104.648 170.271 101.594 170.174 98.599L170.3 98.72C146.087 99.0394 124.728 99.32 110.207 99.5087L110.284 99.4265C110.313 106.167 110.337 111.519 110.357 115.191C110.357 117.025 110.362 118.438 110.366 119.401C110.366 119.875 110.366 120.238 110.366 120.49C110.366 120.737 110.357 120.863 110.357 120.863C110.357 120.863 110.347 120.742 110.342 120.5C110.342 120.253 110.333 119.89 110.323 119.421C110.313 118.462 110.294 117.05 110.274 115.22C110.241 111.538 110.187 106.177 110.124 99.4265V99.3442H110.202C124.718 99.1313 146.077 98.8168 170.291 98.4635H170.412V98.5845C170.508 101.58 170.605 104.633 170.707 107.725C170.852 112.317 170.997 116.832 171.137 121.133V121.196L171.089 121.235C160.023 130.022 149.793 138.147 141.17 144.994L141.108 145.047L141.045 144.999C131.72 137.682 124.036 131.648 118.68 127.443C116.013 125.343 113.928 123.698 112.505 122.575C111.804 122.019 111.262 121.588 110.894 121.298C110.531 121.008 110.352 120.858 110.352 120.858L110.357 120.867Z" fill="#263238"/>
<path d="M160.821 109.414C160.821 109.482 151.632 109.617 140.299 109.709C128.962 109.801 119.773 109.82 119.773 109.753C119.773 109.685 128.962 109.549 140.299 109.457C151.632 109.365 160.826 109.346 160.826 109.414H160.821Z" fill="#263238"/>
<path d="M160.836 115.467C160.836 115.535 151.647 115.67 140.314 115.762C128.977 115.854 119.788 115.874 119.788 115.806C119.788 115.738 128.977 115.603 140.314 115.511C151.647 115.419 160.84 115.399 160.84 115.467H160.836Z" fill="#263238"/>
<path d="M160.85 122.445C160.85 122.513 151.661 122.648 140.329 122.74C128.991 122.832 119.802 122.851 119.802 122.784C119.802 122.716 128.991 122.58 140.329 122.488C151.661 122.396 160.855 122.377 160.855 122.445H160.85Z" fill="#263238"/>
<path d="M160.865 129.422C160.865 129.49 152.097 129.621 141.287 129.708C130.472 129.795 121.704 129.81 121.704 129.742C121.704 129.674 130.467 129.543 141.287 129.456C152.101 129.369 160.869 129.355 160.869 129.422H160.865Z" fill="#263238"/>
<path d="M153.19 135.563C153.19 135.563 153.108 135.582 152.948 135.592C152.759 135.602 152.532 135.611 152.256 135.621C151.618 135.635 150.761 135.66 149.716 135.684C147.538 135.723 144.592 135.776 141.34 135.834C138.069 135.897 135.107 135.916 132.959 135.911C131.914 135.906 131.057 135.897 130.419 135.897C130.143 135.892 129.915 135.882 129.727 135.877C129.567 135.873 129.485 135.863 129.485 135.853C129.485 135.844 129.567 135.834 129.727 135.824C129.915 135.815 130.143 135.805 130.419 135.795C131.057 135.781 131.914 135.756 132.959 135.732C135.136 135.694 138.083 135.64 141.335 135.582C144.606 135.519 147.567 135.5 149.711 135.505C150.756 135.51 151.613 135.519 152.251 135.519C152.527 135.524 152.755 135.534 152.943 135.539C153.103 135.544 153.185 135.553 153.185 135.563H153.19Z" fill="#263238"/>
<path d="M145.467 141.466C145.467 141.534 143.508 141.597 141.093 141.602C138.674 141.607 136.719 141.553 136.719 141.486C136.719 141.418 138.678 141.355 141.093 141.35C143.508 141.345 145.467 141.399 145.467 141.466Z" fill="#263238"/>
<path d="M156.157 91.5131C156.211 91.5209 156.235 91.739 156.211 92.0076C156.184 92.2763 156.118 92.4866 156.064 92.4827C156.009 92.4788 155.986 92.2568 156.009 91.9882C156.036 91.7195 156.102 91.5092 156.157 91.5131Z" fill="#263238"/>
<path d="M156.675 87.7206C156.729 87.7284 156.71 88.1606 156.632 88.6824C156.554 89.2041 156.441 89.6208 156.387 89.613C156.332 89.6052 156.352 89.1769 156.43 88.6512C156.507 88.1294 156.62 87.7128 156.675 87.7206Z" fill="#263238"/>
<path d="M157.442 83.9709C157.496 83.9826 157.45 84.4109 157.333 84.9288C157.22 85.4427 157.08 85.8516 157.025 85.8399C156.971 85.8282 157.018 85.3999 157.134 84.882C157.247 84.3642 157.387 83.9553 157.442 83.9709Z" fill="#263238"/>
<path d="M158.478 80.2874C158.532 80.303 158.45 80.7274 158.299 81.2336C158.147 81.7398 157.979 82.1369 157.925 82.1213C157.87 82.1058 157.952 81.6814 158.104 81.1752C158.256 80.669 158.423 80.2718 158.478 80.2874Z" fill="#263238"/>
<path d="M159.813 76.7012C159.864 76.7246 159.747 77.1373 159.552 77.6279C159.358 78.1186 159.155 78.5001 159.105 78.4807C159.054 78.4612 159.167 78.0446 159.365 77.554C159.56 77.0594 159.763 76.6818 159.813 76.7012Z" fill="#263238"/>
<path d="M161.472 73.2552C161.523 73.2825 161.367 73.6835 161.125 74.1508C160.884 74.6181 160.65 74.9802 160.6 74.9568C160.549 74.9335 160.705 74.5324 160.946 74.0612C161.188 73.5901 161.421 73.228 161.472 73.2552Z" fill="#263238"/>
<path d="M163.473 69.9922C163.52 70.0234 163.318 70.405 163.026 70.8411C162.745 71.2889 162.477 71.6237 162.43 71.5965C162.383 71.5692 162.574 71.1798 162.858 70.7321C163.154 70.2921 163.431 69.9611 163.477 69.9922H163.473Z" fill="#263238"/>
<path d="M165.833 66.9785C165.876 67.0174 165.634 67.3756 165.3 67.7806C164.965 68.1855 164.653 68.4854 164.61 68.4503C164.568 68.4153 164.805 68.057 165.144 67.6482C165.483 67.2393 165.79 66.9395 165.833 66.9785Z" fill="#263238"/>
<path d="M168.531 64.2645C168.566 64.3073 168.29 64.6344 167.904 64.9965C167.523 65.3587 167.18 65.6195 167.141 65.5806C167.102 65.5417 167.383 65.2146 167.768 64.8486C168.154 64.4826 168.496 64.2217 168.531 64.2645Z" fill="#263238"/>
<path d="M171.545 61.9049C171.576 61.9516 171.257 62.2397 170.833 62.5512C170.408 62.8627 170.034 63.0808 169.999 63.0341C169.964 62.9912 170.284 62.6992 170.712 62.3877C171.14 62.0723 171.514 61.8581 171.545 61.9049Z" fill="#263238"/>
<path d="M174.843 59.9658C174.867 60.0164 174.512 60.2617 174.049 60.5109C173.586 60.7601 173.188 60.9275 173.157 60.8769C173.13 60.8302 173.484 60.5849 173.952 60.3318C174.419 60.0787 174.816 59.9152 174.843 59.9658Z" fill="#263238"/>
<path d="M178.387 58.5251C178.402 58.5796 178.017 58.7665 177.522 58.9456C177.028 59.1247 176.611 59.2299 176.588 59.1753C176.564 59.1247 176.954 58.9339 177.452 58.7548C177.95 58.5718 178.371 58.4706 178.387 58.5251Z" fill="#263238"/>
<path d="M182.113 57.6607C182.121 57.7152 181.708 57.8281 181.19 57.9177C180.676 58.0267 180.248 58.0695 180.236 58.015C180.224 57.9605 180.633 57.8281 181.155 57.7191C181.677 57.6295 182.109 57.6062 182.117 57.6607H182.113Z" fill="#263238"/>
<path d="M185.933 57.4465C185.933 57.501 185.504 57.5516 184.979 57.5594C184.453 57.5672 184.025 57.5244 184.021 57.4699C184.021 57.4154 184.445 57.3647 184.975 57.357C185.504 57.3492 185.937 57.392 185.933 57.4465Z" fill="#263238"/>
<path d="M189.729 57.8943C189.717 57.9488 189.285 57.9254 188.767 57.8437C188.249 57.758 187.833 57.6451 187.837 57.5906C187.845 57.5361 188.273 57.5594 188.798 57.6412C189.324 57.7269 189.737 57.8398 189.725 57.8943H189.729Z" fill="#263238"/>
<path d="M193.393 58.9884C193.374 59.0391 192.953 58.9417 192.455 58.7704C191.956 58.5991 191.567 58.4161 191.583 58.3615C191.598 58.307 192.019 58.4044 192.521 58.5796C193.023 58.7548 193.413 58.9378 193.393 58.9884Z" fill="#263238"/>
<path d="M196.8 60.7251C196.769 60.7718 196.376 60.6005 195.92 60.3396C195.465 60.0787 195.114 59.8256 195.138 59.7789C195.161 59.7322 195.558 59.9035 196.018 60.1644C196.481 60.4291 196.827 60.6783 196.8 60.7251Z" fill="#263238"/>
<path d="M199.802 63.0964C199.763 63.1353 199.409 62.8861 199.016 62.5396C198.622 62.193 198.33 61.8776 198.362 61.8309C198.397 61.7881 198.747 62.0334 199.148 62.3877C199.549 62.7381 199.841 63.0535 199.802 63.0964Z" fill="#263238"/>
<path d="M201.691 65.2769C201.644 65.308 201.477 65.164 201.313 64.9537C201.15 64.7434 201.052 64.541 201.095 64.5059C201.138 64.4709 201.309 64.6149 201.473 64.8291C201.64 65.0433 201.737 65.2418 201.691 65.2769Z" fill="#263238"/>
<path d="M219.699 88.7369C219.676 88.7875 219.263 88.6473 218.773 88.4176C218.282 88.1917 217.908 87.9659 217.932 87.9153C217.955 87.8647 218.372 88.0087 218.858 88.2346C219.345 88.4604 219.719 88.6863 219.699 88.7369Z" fill="#263238"/>
<path d="M223.375 90.014C223.363 90.0685 222.931 89.9829 222.413 89.8271C221.896 89.6675 221.494 89.5001 221.514 89.4455C221.533 89.391 221.962 89.4767 222.476 89.6324C222.986 89.7882 223.391 89.9595 223.375 90.014Z" fill="#263238"/>
<path d="M227.214 90.6253C227.214 90.6799 226.774 90.6799 226.237 90.6215C225.7 90.5631 225.271 90.4696 225.279 90.4151C225.287 90.3606 225.727 90.3606 226.257 90.419C226.786 90.4774 227.214 90.5708 227.214 90.6253Z" fill="#263238"/>
<path d="M231.1 90.5046C231.108 90.5592 230.676 90.637 230.139 90.6799C229.601 90.7188 229.161 90.7071 229.161 90.6526C229.161 90.5981 229.59 90.5202 230.123 90.4774C230.657 90.4385 231.093 90.4501 231.1 90.5046Z" fill="#263238"/>
<path d="M234.924 89.7882C234.94 89.8427 234.527 89.9907 234.001 90.1192C233.472 90.2321 233.036 90.2671 233.024 90.2126C233.012 90.1542 233.433 90.0335 233.955 89.9206C234.472 89.7921 234.905 89.7337 234.92 89.7882H234.924Z" fill="#263238"/>
<path d="M238.541 88.3553C238.569 88.4059 238.191 88.6278 237.7 88.8537C237.21 89.0795 236.793 89.2197 236.774 89.1691C236.754 89.1185 237.132 88.8926 237.615 88.6707C238.101 88.4487 238.514 88.3086 238.541 88.3553Z" fill="#263238"/>
<path d="M241.765 86.1864C241.801 86.2293 241.497 86.5486 241.065 86.8756C240.632 87.2027 240.239 87.4052 240.212 87.3585C240.181 87.3117 240.516 87.0353 240.944 86.7121C241.372 86.3889 241.727 86.1436 241.765 86.1864Z" fill="#263238"/>
<path d="M244.413 83.344C244.46 83.3751 244.242 83.7606 243.895 84.1773C243.549 84.5939 243.214 84.882 243.175 84.8431C243.132 84.8042 243.401 84.4576 243.74 84.0488C244.078 83.636 244.367 83.3089 244.413 83.344Z" fill="#263238"/>
<path d="M246.239 79.9175C246.29 79.9369 246.189 80.3652 245.967 80.8598C245.745 81.3543 245.496 81.7203 245.445 81.693C245.394 81.6658 245.566 81.2647 245.78 80.778C245.998 80.2913 246.181 79.898 246.236 79.9175H246.239Z" fill="#263238"/>
<path d="M246.956 76.1094C247.01 76.1094 247.057 76.5494 246.999 77.0906C246.944 77.6318 246.808 78.0563 246.757 78.0446C246.703 78.0329 246.746 77.6007 246.796 77.0711C246.851 76.5416 246.897 76.1094 246.952 76.1094H246.956Z" fill="#263238"/>
<path d="M246.395 72.2701C246.446 72.2545 246.625 72.6595 246.746 73.189C246.866 73.7186 246.882 74.1625 246.827 74.1664C246.773 74.1742 246.668 73.7497 246.547 73.2319C246.43 72.714 246.341 72.2857 246.395 72.2701Z" fill="#263238"/>
<path d="M244.701 68.7774C244.744 68.7462 245.04 69.0772 245.313 69.5484C245.585 70.0156 245.733 70.4361 245.683 70.4595C245.632 70.4829 245.406 70.113 245.137 69.6496C244.869 69.1901 244.659 68.8085 244.701 68.7774Z" fill="#263238"/>
<path d="M242.003 66.0011C242.034 65.9544 242.424 66.1724 242.832 66.5268C243.245 66.8811 243.514 67.2354 243.471 67.2744C243.428 67.3133 243.101 67.0291 242.7 66.6825C242.299 66.3321 241.972 66.0517 242.003 66.0011Z" fill="#263238"/>
<path d="M238.471 64.4203C238.483 64.3657 238.927 64.4086 239.445 64.5799C239.963 64.7512 240.344 64.981 240.321 65.0277C240.298 65.0783 239.889 64.9381 239.382 64.7707C238.876 64.6033 238.464 64.4748 238.475 64.4203H238.471Z" fill="#263238"/>
<path d="M234.609 64.4825C234.593 64.428 235.01 64.2684 235.551 64.2022C236.092 64.1321 236.536 64.1749 236.536 64.2295C236.536 64.2879 236.104 64.3307 235.578 64.4008C235.053 64.467 234.624 64.5371 234.609 64.4825Z" fill="#263238"/>
<path d="M231.252 66.3632C231.213 66.3282 231.478 65.9661 231.918 65.6351C232.354 65.3041 232.771 65.1406 232.798 65.1873C232.825 65.2379 232.463 65.4755 232.043 65.7948C231.618 66.114 231.299 66.3983 231.256 66.3594L231.252 66.3632Z" fill="#263238"/>
<path d="M229.714 69.856C229.66 69.856 229.64 69.4043 229.769 68.8708C229.897 68.3374 230.127 67.948 230.178 67.9714C230.232 67.9947 230.088 68.4036 229.967 68.9176C229.843 69.4315 229.773 69.856 229.714 69.8521V69.856Z" fill="#263238"/>
<path d="M230.474 73.6329C230.427 73.6602 230.178 73.2864 229.999 72.7685C229.819 72.2506 229.784 71.8067 229.835 71.7951C229.893 71.7834 230.014 72.2 230.189 72.7023C230.361 73.2046 230.524 73.6057 230.47 73.6329H230.474Z" fill="#263238"/>
<path d="M233.016 76.5299C232.985 76.5766 232.592 76.3663 232.187 76.0042C231.778 75.6421 231.521 75.2761 231.564 75.2411C231.607 75.2021 231.922 75.5019 232.323 75.8524C232.72 76.2028 233.051 76.4832 233.02 76.5299H233.016Z" fill="#263238"/>
<path d="M236.552 78.1108C236.54 78.1653 236.1 78.1069 235.586 77.9316C235.072 77.7564 234.69 77.5306 234.714 77.48C234.737 77.4293 235.15 77.5656 235.652 77.737C236.155 77.9083 236.567 78.0524 236.552 78.1069V78.1108Z" fill="#263238"/>
<path d="M240.414 78.4807C240.414 78.5352 239.982 78.6092 239.441 78.5936C238.9 78.5819 238.464 78.4924 238.471 78.4378C238.475 78.3794 238.911 78.3794 239.445 78.3911C239.978 78.4028 240.414 78.4223 240.414 78.4807Z" fill="#263238"/>
<path d="M244.23 77.772C244.25 77.8226 243.845 78.0056 243.319 78.1419C242.793 78.2782 242.353 78.3093 242.346 78.2548C242.334 78.2003 242.754 78.0796 243.272 77.9472C243.79 77.8148 244.215 77.7214 244.23 77.7759V77.772Z" fill="#263238"/>
<path d="M247.762 76.1561C247.793 76.2028 247.427 76.4481 246.948 76.7012C246.469 76.9543 246.064 77.1179 246.041 77.0672C246.017 77.0166 246.383 76.7713 246.855 76.5221C247.326 76.2729 247.735 76.1094 247.762 76.1561Z" fill="#263238"/>
<path d="M250.885 73.8354C250.924 73.8782 250.616 74.1897 250.196 74.5324C249.779 74.875 249.413 75.1164 249.378 75.0697C249.347 75.023 249.654 74.7115 250.067 74.3727C250.48 74.034 250.846 73.7926 250.885 73.8354Z" fill="#263238"/>
<path d="M253.536 70.989C253.579 71.0241 253.334 71.3823 252.98 71.7951C252.629 72.2078 252.31 72.5076 252.271 72.4687C252.232 72.4297 252.477 72.0676 252.828 71.6627C253.174 71.2577 253.494 70.954 253.536 70.989Z" fill="#263238"/>
<path d="M255.678 67.7416C255.729 67.7689 255.542 68.1661 255.265 68.6294C254.985 69.0928 254.724 69.4432 254.677 69.4121C254.631 69.3809 254.817 68.9838 255.09 68.5243C255.366 68.0648 255.627 67.7144 255.678 67.7416Z" fill="#263238"/>
<path d="M257.255 64.1827C257.309 64.2022 257.193 64.6227 256.994 65.125C256.799 65.6312 256.589 66.0167 256.535 65.9894C256.488 65.97 256.612 65.5494 256.803 65.051C256.998 64.5526 257.2 64.1633 257.251 64.1827H257.255Z" fill="#263238"/>
<path d="M258.345 60.4486C258.4 60.4603 258.334 60.8925 258.197 61.4181C258.061 61.9399 257.909 62.3527 257.855 62.3332C257.8 62.3176 257.866 61.8854 258.003 61.3636C258.139 60.8458 258.291 60.433 258.345 60.4486Z" fill="#263238"/>
<path d="M259.027 56.6132C259.081 56.621 259.062 57.0571 258.98 57.5906C258.898 58.124 258.789 58.5484 258.731 58.5368C258.676 58.5251 258.696 58.089 258.777 57.5594C258.859 57.0299 258.968 56.6054 259.027 56.6132Z" fill="#263238"/>
<path d="M259.385 52.7389C259.439 52.7389 259.455 53.1789 259.412 53.7163C259.373 54.2536 259.295 54.6858 259.237 54.678C259.182 54.6741 259.167 54.2341 259.21 53.7007C259.249 53.1672 259.326 52.735 259.385 52.7389Z" fill="#263238"/>
<path d="M259.509 48.849C259.564 48.849 259.603 49.2852 259.591 49.8225C259.579 50.3598 259.529 50.7959 259.47 50.792C259.416 50.792 259.377 50.352 259.389 49.8186C259.4 49.2813 259.451 48.8452 259.509 48.849Z" fill="#263238"/>
<path d="M259.478 44.9553C259.533 44.9553 259.587 45.3875 259.595 45.9287C259.603 46.4661 259.564 46.9022 259.509 46.9022C259.455 46.9022 259.4 46.4661 259.393 45.9287C259.385 45.3914 259.424 44.9553 259.478 44.9553Z" fill="#263238"/>
<path d="M259.42 42.5606C259.474 42.5606 259.525 42.658 259.529 42.7826C259.529 42.9072 259.49 43.0084 259.435 43.0084C259.381 43.0084 259.33 42.911 259.326 42.7864C259.326 42.6618 259.365 42.5606 259.42 42.5606Z" fill="#263238"/>
<path d="M267.952 31.0029L241.486 33.8781L243.424 51.7195L269.89 48.8444L267.952 31.0029Z" fill="#4D9447"/>
<path d="M243.416 51.7344V51.7266L241.477 33.8775H241.485L267.963 31V31.0078L269.902 48.8569H269.894L243.416 51.7344ZM241.497 33.8931L243.432 51.7149L269.879 48.8413L267.943 31.0195L241.497 33.8931Z" fill="#263238"/>
<path d="M268.06 31.2142C268.06 31.2142 267.99 31.3115 267.838 31.4789C267.671 31.6619 267.449 31.9034 267.172 32.2032C266.569 32.8457 265.724 33.7412 264.684 34.8432C262.55 37.0743 259.63 40.1309 256.394 43.5146L256.324 43.5847L256.243 43.5302C256.18 43.4912 256.11 43.4445 256.04 43.4017C252.049 40.8513 248.436 38.5422 245.796 36.8562C244.507 36.0191 243.459 35.3377 242.708 34.8509C242.361 34.6212 242.085 34.4343 241.875 34.2941C241.684 34.1656 241.586 34.0917 241.594 34.0878C241.598 34.08 241.703 34.1384 241.902 34.2552C242.116 34.3837 242.404 34.5589 242.758 34.7731C243.522 35.2442 244.585 35.9062 245.889 36.7161C248.541 38.3865 252.166 40.676 256.172 43.2031C256.243 43.2459 256.313 43.2927 256.375 43.3316L256.223 43.3511C259.478 39.9868 262.418 36.9497 264.564 34.7302C265.623 33.6517 266.487 32.7717 267.106 32.1409C267.398 31.8527 267.628 31.623 267.807 31.4478C267.971 31.292 268.056 31.2103 268.064 31.2181L268.06 31.2142Z" fill="#263238"/>
<path d="M243.533 51.9291C243.479 51.8901 245.204 49.2307 247.384 45.9833C249.569 42.7359 251.383 40.1348 251.438 40.1737C251.492 40.2127 249.767 42.8721 247.587 46.1195C245.402 49.3631 243.588 51.968 243.533 51.9291Z" fill="#263238"/>
<path d="M260.21 38.9978C260.257 38.9511 262.488 41.1667 265.19 43.9429C267.893 46.7192 270.046 49.0087 269.999 49.0555C269.953 49.1022 267.721 46.8866 265.019 44.1104C262.317 41.3341 260.164 39.0446 260.21 38.9978Z" fill="#263238"/>
<path d="M138.499 82.4359C138.566 82.4262 138.668 82.6827 138.726 83.0117C138.784 83.3408 138.77 83.6166 138.702 83.6311C138.634 83.6456 138.533 83.3843 138.475 83.0553C138.416 82.7262 138.431 82.4504 138.499 82.4359Z" fill="#263238"/>
<path d="M137.72 77.718C137.787 77.7084 137.928 78.2261 138.034 78.8794C138.141 79.5326 138.17 80.0697 138.102 80.0794C138.034 80.0891 137.894 79.5713 137.787 78.9181C137.681 78.2648 137.652 77.7277 137.72 77.718Z" fill="#263238"/>
<path d="M137.033 72.9857C137.1 72.976 137.231 73.4986 137.323 74.1518C137.415 74.8051 137.434 75.3422 137.362 75.3519C137.289 75.3615 137.163 74.8389 137.071 74.1857C136.979 73.5324 136.96 72.9905 137.033 72.9857Z" fill="#263238"/>
<path d="M136.486 68.2291C136.553 68.2242 136.665 68.7517 136.737 69.4049C136.805 70.063 136.805 70.6001 136.737 70.6098C136.67 70.6195 136.558 70.092 136.486 69.434C136.418 68.7759 136.418 68.2388 136.486 68.2291Z" fill="#263238"/>
<path d="M136.157 63.458C136.224 63.458 136.312 63.9854 136.35 64.6435C136.389 65.3016 136.36 65.8387 136.292 65.8435C136.224 65.8484 136.137 65.3161 136.099 64.658C136.06 63.9999 136.089 63.458 136.157 63.458Z" fill="#263238"/>
<path d="M136.103 58.6724C136.171 58.6724 136.224 59.2095 136.224 59.8724C136.224 60.5305 136.162 61.0676 136.094 61.0676C136.026 61.0676 135.973 60.5305 135.973 59.8676C135.973 59.2047 136.036 58.6675 136.103 58.6724Z" fill="#263238"/>
<path d="M136.404 53.9013C136.471 53.911 136.486 54.4481 136.428 55.1013C136.374 55.7594 136.273 56.2868 136.205 56.282C136.137 56.282 136.123 55.7401 136.181 55.082C136.234 54.4239 136.336 53.8916 136.404 53.9013Z" fill="#263238"/>
<path d="M137.124 49.1737C137.192 49.1883 137.154 49.7254 137.042 50.3738C136.926 51.0222 136.781 51.5399 136.708 51.5303C136.641 51.5206 136.679 50.9835 136.791 50.3302C136.907 49.677 137.057 49.1592 137.124 49.1737Z" fill="#263238"/>
<path d="M138.344 44.5478C138.412 44.572 138.31 45.0994 138.126 45.7285C137.937 46.3575 137.729 46.8559 137.666 46.8366C137.599 46.8172 137.695 46.2898 137.889 45.6559C138.078 45.022 138.286 44.5236 138.349 44.5478H138.344Z" fill="#263238"/>
<path d="M140.134 40.1154C140.197 40.1445 140.033 40.6574 139.766 41.2622C139.5 41.8623 139.234 42.3316 139.171 42.3074C139.108 42.2832 139.273 41.7703 139.539 41.1606C139.805 40.5558 140.071 40.0864 140.134 40.1154Z" fill="#263238"/>
<path d="M142.467 35.9395C142.525 35.9782 142.297 36.467 141.958 37.0283C141.62 37.5896 141.296 38.0202 141.233 37.9863C141.17 37.9525 141.397 37.4638 141.741 36.8976C142.084 36.3315 142.409 35.9008 142.467 35.9395Z" fill="#263238"/>
<path d="M145.336 32.1168C145.389 32.1652 145.094 32.6152 144.683 33.1282C144.271 33.6411 143.889 34.0233 143.836 33.9798C143.778 33.9363 144.073 33.4862 144.489 32.9685C144.905 32.4507 145.288 32.0685 145.336 32.1168Z" fill="#263238"/>
<path d="M148.733 28.7539C148.776 28.8071 148.418 29.2087 147.934 29.6539C147.451 30.0991 147.015 30.4184 146.967 30.37C146.918 30.3216 147.276 29.92 147.765 29.47C148.254 29.02 148.689 28.7006 148.733 28.7539Z" fill="#263238"/>
<path d="M152.643 26.0054C152.677 26.0683 152.256 26.4022 151.704 26.7554C151.152 27.1087 150.668 27.3506 150.63 27.2925C150.591 27.2345 151.012 26.9006 151.568 26.5425C152.13 26.1844 152.609 25.9425 152.643 26.0054Z" fill="#263238"/>
<path d="M157.002 24.0457C157.022 24.1134 156.548 24.3602 155.933 24.5973C155.323 24.8344 154.801 24.9796 154.772 24.9167C154.743 24.8538 155.222 24.607 155.841 24.365C156.46 24.1231 156.978 23.9828 157.002 24.0457Z" fill="#263238"/>
<path d="M160.496 23.1844C160.506 23.2521 160.254 23.3586 159.925 23.4215C159.601 23.4844 159.325 23.4795 159.311 23.4118C159.296 23.344 159.552 23.2376 159.882 23.1747C160.211 23.1118 160.486 23.1166 160.496 23.1844Z" fill="#263238"/>
<path d="M134.754 5.01521L126.009 27.6308L159.56 40.604L168.305 17.9884L134.754 5.01521Z" fill="#4D9447"/>
<path d="M159.572 40.6235H159.562L126 27.6409V27.6312L134.749 5H134.758L168.32 17.9826V17.9923L159.567 40.6187L159.572 40.6235ZM126.029 27.6264L159.557 40.5896L168.291 17.9971L134.763 5.02903L126.029 27.6216V27.6264Z" fill="#263238"/>
<path d="M168.311 18.302C168.311 18.302 168.166 18.3745 167.88 18.481C167.566 18.5971 167.149 18.7471 166.632 18.9358C165.509 19.3326 163.936 19.8843 162.011 20.5617C158.067 21.9166 152.662 23.7698 146.681 25.8215L146.555 25.8651L146.488 25.7489C146.434 25.6618 146.381 25.5651 146.323 25.4683C143.115 19.9327 140.212 14.9196 138.087 11.2566C137.062 9.45173 136.224 7.98072 135.624 6.93069C135.353 6.43713 135.136 6.04519 134.971 5.74518C134.826 5.4742 134.753 5.32904 134.763 5.31936C134.773 5.31452 134.865 5.45001 135.029 5.71131C135.208 6.00164 135.445 6.38391 135.736 6.86295C136.355 7.9033 137.226 9.35495 138.291 11.1356C140.434 14.789 143.367 19.7826 146.609 25.2989C146.667 25.3957 146.72 25.4925 146.773 25.5796L146.58 25.507C152.575 23.4892 157.985 21.6698 161.943 20.3391C163.883 19.7004 165.466 19.1826 166.598 18.81C167.125 18.6455 167.546 18.51 167.87 18.4084C168.161 18.3213 168.316 18.2778 168.32 18.2923L168.311 18.302Z" fill="#263238"/>
<path d="M126.015 27.9458C125.971 27.8683 129.692 25.7441 134.328 23.1989C138.963 20.6585 142.752 18.66 142.796 18.7423C142.839 18.8197 139.118 20.944 134.482 23.4892C129.847 26.0296 126.058 28.028 126.015 27.9458Z" fill="#263238"/>
<path d="M154.056 22.773C154.143 22.7488 155.444 26.7893 156.964 31.7975C158.483 36.8105 159.649 40.8945 159.562 40.9187C159.475 40.9429 158.173 36.9024 156.654 31.8943C155.135 26.8861 153.969 22.8021 154.056 22.773Z" fill="#263238"/>
<path d="M119.735 89.9509C119.79 89.9509 119.818 90.1813 119.798 90.4555C119.774 90.7296 119.711 90.9481 119.655 90.9442C119.599 90.9402 119.572 90.7137 119.592 90.4396C119.615 90.1654 119.679 89.9469 119.735 89.9509Z" fill="#263238"/>
<path d="M119.838 85.9103C119.893 85.9103 119.941 86.3632 119.937 86.9194C119.937 87.4796 119.89 87.9326 119.83 87.9286C119.774 87.9286 119.727 87.4757 119.731 86.9194C119.731 86.3632 119.778 85.9103 119.838 85.9103Z" fill="#263238"/>
<path d="M119.564 81.8776C119.619 81.8696 119.707 82.3186 119.758 82.8748C119.81 83.4311 119.806 83.888 119.746 83.8919C119.691 83.8919 119.603 83.4509 119.552 82.8947C119.5 82.3424 119.504 81.8855 119.564 81.8776Z" fill="#263238"/>
<path d="M118.888 77.8926C118.944 77.8807 119.075 78.3137 119.182 78.866C119.29 79.4143 119.333 79.8672 119.274 79.8791C119.218 79.8871 119.083 79.454 118.98 78.9057C118.872 78.3614 118.833 77.9085 118.888 77.8926Z" fill="#263238"/>
<path d="M117.792 74.0029C117.847 73.9831 118.026 74.4002 118.193 74.9366C118.36 75.473 118.451 75.9179 118.396 75.9338C118.34 75.9497 118.161 75.5326 117.994 75.0002C117.827 74.4678 117.736 74.0228 117.792 74.0029Z" fill="#263238"/>
<path d="M116.246 70.2722C116.298 70.2483 116.524 70.6417 116.755 71.1502C116.985 71.6628 117.128 72.0919 117.077 72.1157C117.025 72.1356 116.794 71.7422 116.568 71.2376C116.342 70.7291 116.195 70.3 116.246 70.2722Z" fill="#263238"/>
<path d="M114.24 66.7639C114.287 66.7322 114.574 67.0897 114.872 67.5625C115.158 68.0433 115.348 68.4565 115.301 68.4883C115.249 68.5161 114.979 68.1506 114.697 67.6738C114.399 67.205 114.192 66.7997 114.24 66.7679V66.7639Z" fill="#263238"/>
<path d="M111.761 63.5696C111.804 63.5299 112.13 63.8477 112.488 64.2808C112.845 64.7099 113.099 65.0873 113.056 65.1231C113.012 65.1588 112.686 64.841 112.329 64.4119C111.971 63.9868 111.717 63.6093 111.761 63.5696Z" fill="#263238"/>
<path d="M108.86 60.7606C108.896 60.7169 109.265 60.9871 109.679 61.3605C110.096 61.738 110.402 62.0717 110.358 62.1154C110.318 62.1552 109.953 61.889 109.54 61.5155C109.126 61.142 108.82 60.8043 108.86 60.7606Z" fill="#263238"/>
<path d="M105.582 58.3966C105.61 58.3489 106.015 58.5595 106.48 58.8694C106.945 59.1793 107.299 59.4694 107.263 59.517C107.231 59.5647 106.826 59.3502 106.365 59.0442C105.904 58.7343 105.551 58.4483 105.582 58.3966Z" fill="#263238"/>
<path d="M101.983 56.565C102.003 56.5134 102.436 56.6604 102.944 56.8948C103.453 57.1292 103.846 57.3596 103.818 57.4113C103.791 57.4629 103.361 57.3159 102.857 57.0815C102.352 56.8471 101.959 56.6167 101.983 56.565Z" fill="#263238"/>
<path d="M98.1329 55.3453C98.1448 55.2897 98.5938 55.3612 99.1341 55.5082C99.6744 55.6552 100.1 55.8181 100.084 55.8697C100.068 55.9254 99.6188 55.8499 99.0825 55.7068C98.5461 55.5638 98.121 55.4009 98.1329 55.3453Z" fill="#263238"/>
<path d="M94.128 54.8328C94.128 54.7771 94.5849 54.7533 95.1451 54.7851C95.7053 54.8447 96.1503 54.9361 96.1424 54.9917C96.1344 55.0473 95.6815 55.0473 95.1292 54.9917C94.577 54.9599 94.128 54.8884 94.128 54.8328Z" fill="#263238"/>
<path d="M90.0993 55.1109C90.0914 55.0553 90.5324 54.9559 91.0926 54.8884C91.6488 54.8208 92.1057 54.8169 92.1097 54.8725C92.1097 54.9281 91.6687 55.0274 91.1164 55.095C90.5642 55.1586 90.1112 55.1665 90.0993 55.1109Z" fill="#263238"/>
<path d="M86.1977 56.1479C86.1779 56.0962 86.595 55.9134 87.1314 55.7426C87.6678 55.5718 88.1128 55.4804 88.1247 55.536C88.1406 55.5916 87.7234 55.7704 87.191 55.9413C86.6626 56.1081 86.2176 56.2035 86.1977 56.1479Z" fill="#263238"/>
<path d="M82.5584 57.9C82.5266 57.8523 82.904 57.5941 83.3967 57.3279C83.8894 57.0617 84.3105 56.8868 84.3343 56.9385C84.3582 56.9901 83.9847 57.2444 83.496 57.5106C83.0073 57.7728 82.5862 57.9477 82.5584 57.9Z" fill="#263238"/>
<path d="M79.3283 60.3275C79.2885 60.2878 79.6064 59.962 80.0394 59.6005C80.4725 59.2389 80.85 58.9846 80.8817 59.0323C80.9175 59.08 80.5996 59.4018 80.1706 59.7594C79.7454 60.113 79.368 60.3673 79.3283 60.3275Z" fill="#263238"/>
<path d="M76.6862 63.3749C76.6385 63.3431 76.857 62.9379 77.1987 62.4929C77.5443 62.0479 77.8781 61.738 77.9218 61.7737C77.9655 61.8135 77.7033 62.179 77.3616 62.62C77.0239 63.0571 76.7338 63.4067 76.6862 63.3749Z" fill="#263238"/>
<path d="M75.2121 66.0011C75.1605 65.9773 75.2121 65.7588 75.3353 65.5084C75.4545 65.2581 75.5936 65.0794 75.6452 65.1072C75.6969 65.135 75.6412 65.3535 75.522 65.5998C75.4028 65.8462 75.2638 66.0249 75.2121 66.0011Z" fill="#263238"/>
<path d="M49.9711 89.4463C49.9711 89.3907 50.1817 89.3152 50.4519 89.2834C50.722 89.2516 50.9485 89.2715 50.9564 89.3271C50.9684 89.3827 50.7498 89.4542 50.4757 89.49C50.2016 89.5218 49.9751 89.5059 49.9711 89.4463Z" fill="#263238"/>
<path d="M46.0338 89.0013C46.0497 88.9457 46.4867 89.0371 47.0191 89.1483C47.5515 89.2596 47.9886 89.3509 47.9806 89.4105C47.9766 89.4662 47.5197 89.4662 46.9754 89.3509C46.4311 89.2357 46.0139 89.053 46.0338 89.0013Z" fill="#263238"/>
<path d="M42.4779 87.2412C42.5097 87.1936 42.899 87.4121 43.3678 87.6942C43.8367 87.9763 44.2141 88.2107 44.1863 88.2623C44.1625 88.314 43.7373 88.159 43.2606 87.873C42.7838 87.5909 42.4461 87.2889 42.4779 87.2452V87.2412Z" fill="#263238"/>
<path d="M39.5219 84.5872C39.5656 84.5475 39.8914 84.8534 40.2768 85.2428C40.6622 85.6321 40.9602 85.9619 40.9244 86.0016C40.8886 86.0453 40.5191 85.7791 40.1298 85.3858C39.7404 84.9925 39.4782 84.623 39.5219 84.5872Z" fill="#263238"/>
<path d="M37.1857 81.369C37.2334 81.3412 37.5195 81.6869 37.8174 82.1438C38.1154 82.6007 38.322 82.998 38.2783 83.0337C38.2306 83.0695 37.9486 82.7199 37.6466 82.259C37.3446 81.7981 37.138 81.3968 37.1857 81.369Z" fill="#263238"/>
<path d="M35.4693 77.7813C35.521 77.7614 35.7395 78.1548 35.9541 78.6554C36.1686 79.16 36.2997 79.5851 36.2481 79.6129C36.1964 79.6367 35.9779 79.2474 35.7633 78.7388C35.5448 78.2303 35.4137 77.8012 35.4693 77.7813Z" fill="#263238"/>
<path d="M34.3251 73.9671C34.3807 73.9552 34.5396 74.3724 34.6787 74.9048C34.8177 75.4332 34.8853 75.8782 34.8297 75.8941C34.774 75.91 34.6151 75.4928 34.4761 74.9564C34.337 74.4241 34.2695 73.9791 34.3251 73.9671Z" fill="#263238"/>
<path d="M33.6338 70.0457C33.6894 70.0378 33.8046 70.4708 33.8841 71.0151C33.9675 71.5595 33.9874 72.0044 33.9318 72.0164C33.8761 72.0283 33.7649 71.5912 33.6815 71.0469C33.598 70.5026 33.5782 70.0537 33.6338 70.0457Z" fill="#263238"/>
<path d="M33.2524 66.0806C33.308 66.0806 33.3914 66.5176 33.4351 67.0659C33.4788 67.6142 33.4709 68.0631 33.4113 68.0671C33.3557 68.0711 33.2722 67.634 33.2285 67.0818C33.1848 66.5335 33.1928 66.0845 33.2524 66.0806Z" fill="#263238"/>
<path d="M33.0895 63.1008C33.1451 63.1008 33.2047 63.3193 33.2166 63.5934C33.2285 63.8676 33.1928 64.0901 33.1371 64.094C33.0815 64.094 33.0219 63.8755 33.01 63.6014C32.9981 63.3272 33.0338 63.1047 33.0895 63.1008Z" fill="#263238"/>
<path d="M48.0449 39.0111L15.0096 40.569L16.0597 62.8373L49.095 61.2794L48.0449 39.0111Z" fill="#4D9447"/>
<path d="M16.0489 62.8465V62.8346L15 40.5574H15.0119L48.0601 39V39.0119L49.109 61.289H49.097L16.0489 62.8465ZM15.0199 40.5773L16.0688 62.8266L49.0851 61.2692L48.0362 39.0199L15.0199 40.5773Z" fill="#263238"/>
<path d="M48.1634 39.2741C48.1634 39.2741 48.068 39.3894 47.8694 39.584C47.6469 39.7986 47.3528 40.0807 46.9873 40.4343C46.1887 41.1852 45.0723 42.2341 43.7056 43.5214C40.8886 46.1277 37.0387 49.6916 32.7676 53.6448L32.6763 53.7282L32.5769 53.6567C32.5014 53.6011 32.418 53.5415 32.3346 53.4819C27.5788 50.0174 23.2759 46.8826 20.1292 44.5901C18.5956 43.4538 17.3441 42.5281 16.4502 41.8686C16.037 41.5547 15.7072 41.3044 15.4609 41.1177C15.2344 40.9428 15.1192 40.8475 15.1271 40.8395C15.1351 40.8316 15.2582 40.9111 15.4966 41.07C15.7549 41.2488 16.0966 41.4832 16.5217 41.7772C17.4315 42.4208 18.6989 43.3187 20.2564 44.4233C23.415 46.6959 27.7377 49.8068 32.5134 53.2435C32.5968 53.3031 32.6802 53.3627 32.7557 53.4183L32.565 53.4302C36.8559 49.5048 40.7297 45.9648 43.5625 43.3744C44.9571 42.1149 46.0974 41.0938 46.9118 40.3588C47.2933 40.0211 47.5992 39.7549 47.8296 39.5523C48.0402 39.3695 48.1554 39.2781 48.1634 39.2861V39.2741Z" fill="#263238"/>
<path d="M16.18 63.0968C16.1125 63.0451 18.4566 59.8786 21.4086 56.0167C24.3606 52.1589 26.808 49.0718 26.8756 49.1195C26.9431 49.1711 24.603 52.3377 21.647 56.1995C18.695 60.0574 16.2475 63.1445 16.18 63.0968Z" fill="#263238"/>
<path d="M37.8373 48.3288C37.9009 48.2732 40.4993 51.1894 43.638 54.8367C46.7807 58.488 49.2758 61.4877 49.2123 61.5433C49.1487 61.5989 46.5543 58.6827 43.4116 55.0354C40.2728 51.3881 37.7737 48.3844 37.8373 48.3328V48.3288Z" fill="#263238"/>
</svg>
