<svg width="736" height="183" viewBox="0 0 736 183" fill="none" xmlns="http://www.w3.org/2000/svg">
<g clip-path="url(#clip0_26_76)">
<path d="M256.04 130.46C249.672 130.603 243.338 129.491 237.399 127.187C232.402 125.279 228.087 121.92 225.01 117.54C221.902 112.792 220.211 107.254 220.135 101.577C220.135 100.888 220.421 100.544 221.11 100.544H234.302C234.432 100.535 234.563 100.555 234.685 100.601C234.807 100.647 234.918 100.719 235.01 100.811C235.102 100.903 235.174 101.014 235.22 101.137C235.266 101.259 235.285 101.39 235.277 101.52C235.542 104.836 236.438 108.072 237.915 111.052C239.35 113.8 241.647 115.999 244.454 117.311C248.219 118.917 252.295 119.662 256.384 119.493C259.743 119.559 263.092 119.094 266.307 118.115C268.871 117.342 271.147 115.823 272.845 113.751C274.495 111.513 275.325 108.776 275.197 105.999C275.273 104.677 275.049 103.355 274.542 102.132C274.036 100.909 273.259 99.8165 272.272 98.936C270.035 97.1061 267.435 95.7749 264.643 95.0314C261.489 94.1701 258.047 93.3662 254.204 92.6772C250.362 91.9881 246.633 91.2416 242.733 90.3229C239.147 89.4631 235.665 88.2115 232.352 86.5906C229.279 85.0634 226.652 82.7693 224.723 79.9297C222.64 76.5792 221.62 72.6752 221.798 68.7327C221.656 64.0707 223.002 59.4847 225.641 55.6408C228.382 51.858 232.171 48.9632 236.539 47.3148C242.025 45.2098 247.873 44.2144 253.746 44.3863C261.917 44.0217 270.01 46.1221 276.975 50.4155C280.035 52.5941 282.567 55.4332 284.383 58.7229C286.2 62.0126 287.256 65.6689 287.471 69.4217C287.471 70.1682 287.471 70.5127 286.554 70.5127H273.362C272.788 70.5127 272.444 70.1682 272.329 69.5366C272.258 67.4898 271.732 65.4846 270.789 63.6669C269.847 61.8492 268.511 60.2647 266.88 59.0286C262.833 56.3939 258.049 55.1261 253.229 55.411C248.953 55.2261 244.707 56.2192 240.955 58.2821C239.419 59.221 238.169 60.5627 237.34 62.1619C236.511 63.761 236.135 65.5567 236.252 67.3546C236.184 68.6027 236.408 69.8494 236.906 70.9957C237.404 72.142 238.162 73.1563 239.12 73.958C241.4 75.6666 243.991 76.9147 246.748 77.6329C249.96 78.4942 253.401 79.2407 257.244 79.8723C261.087 80.504 264.873 81.3078 268.716 82.2265C272.362 83.0634 275.888 84.356 279.212 86.0738C282.291 87.6437 284.917 89.9762 286.84 92.8494C288.963 96.2889 289.984 100.296 289.766 104.334C289.949 109.481 288.482 114.552 285.579 118.804C282.711 122.808 278.718 125.866 274.107 127.589C268.326 129.705 262.191 130.68 256.04 130.46V130.46Z" fill="#27275E"/>
<path d="M336.855 68.8475C336.855 68.1584 337.199 67.8713 337.888 67.8713H350.219C350.85 67.8713 351.137 68.1584 351.137 68.8475V98.0172V127.761C351.137 128.45 351.137 128.795 350.219 128.795H337.945C337.805 128.814 337.662 128.8 337.529 128.755C337.395 128.71 337.273 128.634 337.173 128.534C337.073 128.434 336.998 128.312 336.953 128.178C336.907 128.044 336.894 127.901 336.913 127.761V119.952C334.972 123 332.313 125.524 329.169 127.302C325.795 129.077 322.026 129.966 318.214 129.886C313.153 130.065 308.168 128.616 303.99 125.751C300.084 122.813 297.083 118.833 295.329 114.267C293.317 109.17 292.323 103.727 292.404 98.2469C292.329 92.7636 293.404 87.3256 295.558 82.2839C297.405 77.7068 300.482 73.7315 304.449 70.7998C308.519 67.8726 313.434 66.36 318.444 66.4932C322.075 66.3044 325.691 67.0815 328.925 68.7457C332.159 70.4098 334.895 72.9016 336.855 75.9676V68.8475ZM322.287 120.526C324.443 120.62 326.589 120.176 328.531 119.234C330.473 118.292 332.151 116.881 333.414 115.129C336.404 110.303 337.808 104.66 337.429 98.9934C337.872 93.2059 336.552 87.4201 333.643 82.3988C332.457 80.5599 330.812 79.0628 328.87 78.0557C326.929 77.0486 324.758 76.5664 322.573 76.6567C319.507 76.4606 316.467 77.3329 313.97 79.1258C311.603 81.0502 309.849 83.6246 308.923 86.533C307.694 90.2336 307.112 94.1186 307.202 98.0172C307.13 102.136 307.691 106.242 308.865 110.19C309.761 113.226 311.514 115.938 313.913 118C316.336 119.751 319.31 120.567 322.287 120.296V120.526Z" fill="#27275E"/>
<path d="M386.01 54.8368C385.044 54.7949 384.08 54.9574 383.18 55.3136C382.281 55.6697 381.467 56.2117 380.79 56.904C379.247 59.0482 378.534 61.6802 378.783 64.3112V67.6416H392.204C392.893 67.6416 393.237 67.9287 393.237 68.6178V76.7715C393.237 77.4032 392.893 77.7477 392.204 77.7477H378.783V101.348L379.242 127.531C379.261 127.672 379.247 127.814 379.202 127.948C379.157 128.082 379.081 128.204 378.981 128.304C378.881 128.404 378.76 128.48 378.626 128.525C378.492 128.57 378.349 128.584 378.209 128.565H365.476C364.845 128.565 364.501 128.221 364.501 127.531L364.845 101.348V77.9774H356.414C356.281 77.9967 356.146 77.9847 356.019 77.9424C355.892 77.9002 355.777 77.8289 355.682 77.7341C355.587 77.6393 355.516 77.5236 355.474 77.3964C355.432 77.2692 355.42 77.1339 355.439 77.0013V68.8475C355.42 68.7149 355.432 68.5795 355.474 68.4523C355.516 68.3251 355.587 68.2095 355.682 68.1147C355.777 68.0199 355.892 67.9485 356.019 67.9063C356.146 67.864 356.281 67.852 356.414 67.8713H364.845V63.048C364.655 59.2691 365.572 55.5169 367.484 52.2529C369.062 49.68 371.41 47.6707 374.194 46.5108C376.881 45.2999 379.794 44.6735 382.741 44.6733C384.404 44.6733 386.125 44.6734 387.845 44.9605L392.434 45.6495C392.562 45.6637 392.687 45.7034 392.8 45.7661C392.913 45.8288 393.012 45.9133 393.092 46.0148C393.172 46.1164 393.231 46.2328 393.266 46.3573C393.301 46.4819 393.31 46.6122 393.294 46.7405V54.722C393.294 55.4876 393.007 55.7747 392.434 55.5833C391.492 55.3405 390.533 55.1677 389.566 55.0665L386.01 54.8368Z" fill="#27275E"/>
<path d="M422.431 130.173C416.643 130.373 410.91 128.983 405.855 126.153C401.436 123.513 397.902 119.615 395.703 114.956C393.358 109.719 392.146 104.044 392.146 98.3044C392.146 92.5647 393.358 86.8899 395.703 81.6524C397.902 76.9013 401.454 72.9062 405.913 70.1682C410.752 67.4313 416.244 66.0619 421.8 66.2062C425.884 65.9672 429.969 66.642 433.759 68.1816C437.549 69.7211 440.948 72.0867 443.711 75.1064C449.231 82.0068 452.064 90.6777 451.683 99.5102C451.702 99.6429 451.691 99.7782 451.648 99.9054C451.606 100.033 451.535 100.148 451.44 100.243C451.345 100.338 451.23 100.409 451.103 100.451C450.976 100.494 450.841 100.506 450.708 100.486H406.601C406.388 105.85 407.94 111.135 411.017 115.531C412.439 117.152 414.211 118.429 416.198 119.264C418.186 120.1 420.337 120.473 422.489 120.354C425.799 120.506 429.054 119.467 431.666 117.425C434.289 115.12 436.032 111.974 436.598 108.525C436.598 108.407 436.622 108.29 436.669 108.182C436.716 108.073 436.784 107.976 436.87 107.895C436.956 107.814 437.058 107.752 437.169 107.712C437.28 107.672 437.398 107.656 437.516 107.664H449.332C450.058 107.664 450.402 107.894 450.364 108.353C449.828 112.32 448.31 116.091 445.948 119.32C443.504 122.669 440.246 125.337 436.484 127.072C432.099 129.17 427.291 130.231 422.431 130.173ZM407.002 91.5287H436.484C436.285 88.8701 435.625 86.2664 434.534 83.8344C433.5 81.3903 431.74 79.324 429.493 77.9165C427.246 76.5091 424.62 75.8286 421.972 75.9677C420.091 75.8697 418.211 76.1779 416.459 76.8714C414.708 77.565 413.126 78.6275 411.82 79.9871C409.036 83.2275 407.349 87.2683 407.002 91.5287V91.5287Z" fill="#27275E"/>
<path d="M494.93 130.345C487.47 130.567 480.091 128.74 473.594 125.062C467.649 121.553 462.879 116.358 459.885 110.133C456.533 103.073 454.883 95.3241 455.067 87.5093C454.877 79.577 456.547 71.7104 459.943 64.541C462.98 58.2948 467.788 53.0824 473.766 49.5542C480.182 45.882 487.485 44.0539 494.873 44.2714C500.288 44.1983 505.672 45.1128 510.761 46.9702C515.685 48.8088 520.011 51.9672 523.264 56.1002C527.071 61.1609 529.591 67.0731 530.606 73.3264C530.606 74.0729 530.606 74.4173 529.803 74.4173H517.471C517.237 74.4338 517.005 74.3597 516.824 74.2101C516.642 74.0605 516.525 73.8469 516.496 73.6134C515.899 69.9486 514.466 66.4709 512.309 63.45C510.354 60.9545 507.812 58.982 504.91 57.7079C501.686 56.3272 498.207 55.6423 494.701 55.6982C489.911 55.5585 485.197 56.924 481.222 59.6028C477.526 62.3768 474.716 66.1675 473.135 70.5127C471.089 75.919 470.115 81.6726 470.267 87.4518C469.721 95.8237 472.004 104.136 476.748 111.052C478.905 113.74 481.666 115.88 484.805 117.297C487.945 118.714 491.375 119.368 494.815 119.206C498.615 119.31 502.386 118.523 505.828 116.909C508.902 115.427 511.489 113.096 513.284 110.191C515.251 106.844 516.519 103.132 517.012 99.2805C517.041 99.0115 517.168 98.7627 517.37 98.5823C517.571 98.4019 517.832 98.3029 518.102 98.3044H530.491C531.294 98.3044 531.581 98.7063 531.352 99.5676C530.43 105.883 528.097 111.908 524.526 117.196C521.404 121.614 517.114 125.074 512.137 127.187C506.68 129.415 500.822 130.49 494.93 130.345Z" fill="#27275E"/>
<path d="M536.915 128.795C536.227 128.795 535.94 128.45 535.94 127.761L536.341 86.9351L535.94 46.7405C535.94 46.0515 536.227 45.7069 536.915 45.7069H549.075C549.706 45.7069 550.05 46.0515 550.05 46.7405V76.1399C551.362 74.183 552.968 72.44 554.81 70.9721C556.717 69.4488 558.87 68.2641 561.177 67.4694C563.77 66.6302 566.482 66.2228 569.207 66.2636C572.117 66.1149 575.025 66.5914 577.735 67.661C580.446 68.7307 582.897 70.3687 584.923 72.465C589.166 78.0356 591.116 85.0223 590.371 91.9881V104.563L590.658 127.532C590.658 128.221 590.371 128.565 589.74 128.565H577.237C577.097 128.584 576.954 128.57 576.82 128.525C576.686 128.48 576.565 128.404 576.465 128.304C576.365 128.204 576.289 128.083 576.244 127.948C576.199 127.814 576.185 127.672 576.204 127.532V104.563V90.61C576.523 86.8334 575.395 83.0768 573.05 80.102C572.071 79.0448 570.881 78.2067 569.556 77.6427C568.232 77.0786 566.803 76.8013 565.364 76.829C561.91 76.8671 558.595 78.1986 556.072 80.5614C552.978 83.4234 550.802 87.1405 549.82 91.2416L550.164 127.646C550.164 128.335 549.82 128.68 549.189 128.68L536.915 128.795Z" fill="#27275E"/>
<path d="M638.78 68.8475C638.78 68.1584 639.125 67.8713 639.813 67.8713H652.145C652.277 67.852 652.412 67.864 652.539 67.9062C652.666 67.9485 652.782 68.0199 652.876 68.1147C652.971 68.2094 653.042 68.325 653.085 68.4522C653.127 68.5795 653.139 68.7148 653.12 68.8475L652.775 98.0172L653.12 127.761C653.12 128.45 652.775 128.795 652.145 128.795H639.87C639.73 128.814 639.588 128.8 639.454 128.755C639.32 128.71 639.198 128.634 639.098 128.534C638.998 128.434 638.923 128.312 638.878 128.178C638.832 128.044 638.819 127.901 638.838 127.761V119.952C636.914 123.014 634.251 125.542 631.095 127.302C627.722 129.081 623.951 129.971 620.14 129.886C615.096 130.065 610.129 128.616 605.972 125.751C602.051 122.828 599.046 118.844 597.312 114.267C595.3 109.17 594.306 103.727 594.386 98.2469C594.322 92.7702 595.376 87.3381 597.484 82.2839C599.35 77.7187 602.424 73.7485 606.374 70.7998C610.444 67.8726 615.359 66.36 620.369 66.4932C624 66.3044 627.616 67.0815 630.85 68.7457C634.084 70.4098 636.82 72.9016 638.78 75.9676V68.8475ZM624.212 120.526C626.369 120.626 628.516 120.184 630.46 119.241C632.403 118.299 634.08 116.885 635.339 115.129C638.325 110.299 639.747 104.663 639.411 98.9934C639.808 93.2094 638.491 87.4369 635.626 82.3988C634.43 80.5553 632.775 79.056 630.824 78.0489C628.872 77.0419 626.692 76.562 624.499 76.6567C621.451 76.4692 618.432 77.3414 615.952 79.1258C613.549 81.0281 611.771 83.6083 610.848 86.533C609.619 90.2336 609.037 94.1186 609.127 98.0172C609.055 102.136 609.616 106.242 610.79 110.19C611.686 113.226 613.439 115.938 615.838 118C618.261 119.751 621.235 120.567 624.212 120.296V120.526Z" fill="#27275E"/>
<path d="M674.456 127.761C674.456 128.45 674.456 128.795 673.481 128.795H660.92C660.289 128.795 660.002 128.45 660.002 127.761V97.845V69.1346C660.002 68.4456 660.002 68.1585 660.92 68.1585H673.481C674.169 68.1585 674.456 68.4456 674.456 69.1346V97.845V127.761ZM674.456 60.4641C674.476 60.5968 674.464 60.7321 674.421 60.8593C674.379 60.9866 674.308 61.1021 674.213 61.1969C674.119 61.2917 674.003 61.363 673.876 61.4053C673.749 61.4475 673.614 61.4595 673.481 61.4402H661.092C660.404 61.4402 660.06 61.0957 660.06 60.4641V48.98C660.06 48.3483 660.404 48.0038 661.092 48.0038H673.481C673.614 47.9845 673.749 47.9965 673.876 48.0388C674.003 48.081 674.119 48.1523 674.213 48.2471C674.308 48.3419 674.379 48.4575 674.421 48.5847C674.464 48.7119 674.476 48.8473 674.456 48.98V60.4641Z" fill="#27275E"/>
<path d="M695.908 127.761C695.908 128.45 695.621 128.795 694.933 128.795H682.257C681.683 128.795 681.396 128.45 681.396 127.761L681.683 100.314V68.8475C681.664 68.7149 681.676 68.5795 681.718 68.4523C681.76 68.3251 681.832 68.2095 681.926 68.1147C682.021 68.0199 682.136 67.9485 682.264 67.9063C682.391 67.864 682.526 67.852 682.658 67.8713H694.531C695.162 67.8713 695.506 68.1585 695.449 68.8475V77.0013C696.825 75.0252 698.465 73.2477 700.324 71.7186C702.34 70.0828 704.606 68.7836 707.035 67.8713C709.715 66.884 712.553 66.3975 715.409 66.4358C718.234 66.3095 721.054 66.7929 723.676 67.8529C726.299 68.913 728.663 70.525 730.608 72.5799C734.714 77.566 736.765 83.9322 736.344 90.3803V102.783V127.761C736.363 127.901 736.349 128.044 736.304 128.178C736.259 128.312 736.184 128.434 736.084 128.534C735.984 128.634 735.862 128.71 735.728 128.755C735.594 128.8 735.452 128.814 735.312 128.795H722.865C722.234 128.795 721.948 128.45 721.948 127.761L722.234 102.783V90.61C722.506 86.9093 721.38 83.2414 719.08 80.3317C718.083 79.2092 716.853 78.3189 715.475 77.7237C714.098 77.1284 712.607 76.8426 711.107 76.8864C708.68 76.8976 706.308 77.6159 704.282 78.9536C701.966 80.4794 700.103 82.6018 698.89 85.0975C697.271 88.3603 696.316 91.9127 696.08 95.5482V102.668L695.908 127.761Z" fill="#27275E"/>
<path d="M54.0874 140.279C54.0874 140.279 55.3492 140.279 55.636 140.279H57.1846H126.013C128.644 140.325 131.259 139.842 133.701 138.859C136.143 137.875 138.363 136.411 140.229 134.553C142.096 132.695 143.571 130.481 144.567 128.042C145.564 125.603 146.061 122.989 146.03 120.354C145.781 115.519 143.693 110.963 140.195 107.621C136.696 104.279 132.053 102.404 127.217 102.381H57.7582C54.4973 102.449 51.2594 101.82 48.2604 100.537C45.2615 99.2528 42.5704 97.3437 40.3667 94.9364C38.163 92.5292 36.4973 89.6792 35.4807 86.5766C34.4642 83.474 34.12 80.1901 34.4714 76.9438C34.5878 75.9966 34.7602 75.0571 34.9876 74.1303C36.5311 68.8349 39.782 64.1999 44.2332 60.9487C48.6844 57.6975 54.0855 56.0128 59.5936 56.1575H98.6534C108.519 56.1575 113.394 56.1576 116.549 56.5595C125.247 57.2671 133.742 59.5635 141.614 63.3351C170.636 77.8052 181.304 121.043 167.711 149.179C162.666 159.338 154.851 167.859 145.17 173.755C134.211 180.459 121.469 183.655 108.648 182.916C95.8259 182.178 83.5348 177.539 73.4165 169.621C68.7344 165.958 64.6177 161.624 61.1996 156.759C57.3791 152.296 54.8416 146.877 53.8579 141.083C53.8579 141.083 53.8579 141.083 53.8579 140.738C53.8619 140.65 53.8844 140.563 53.9239 140.484C53.9634 140.405 54.0191 140.335 54.0874 140.279V140.279Z" fill="#57BAEC"/>
<path d="M54.0874 140.279C54.0874 140.279 55.3492 140.279 55.636 140.279H57.1846H126.013C128.644 140.325 131.259 139.842 133.701 138.859C136.143 137.875 138.363 136.411 140.229 134.553C142.096 132.695 143.571 130.481 144.567 128.042C145.564 125.603 146.061 122.989 146.03 120.354C145.781 115.519 143.693 110.963 140.195 107.621C136.696 104.279 132.053 102.404 127.217 102.381H57.7582C54.4973 102.449 51.2594 101.82 48.2604 100.537C45.2615 99.2528 42.5704 97.3437 40.3667 94.9364C38.163 92.5292 36.4973 89.6792 35.4807 86.5766C34.4642 83.474 34.12 80.1901 34.4714 76.9438C34.5878 75.9966 34.7602 75.0571 34.9876 74.1303C36.5311 68.8349 39.782 64.1999 44.2332 60.9487C48.6844 57.6975 54.0855 56.0128 59.5936 56.1575H98.6534C108.519 56.1575 113.394 56.1576 116.549 56.5595C125.247 57.2671 133.742 59.5635 141.614 63.3351C170.636 77.8052 181.304 121.043 167.711 149.179C162.666 159.338 154.851 167.859 145.17 173.755C134.211 180.459 121.469 183.655 108.648 182.916C95.8259 182.178 83.5348 177.539 73.4165 169.621C68.7344 165.958 64.6177 161.624 61.1996 156.759C57.3791 152.296 54.8416 146.877 53.8579 141.083C53.8579 141.083 53.8579 141.083 53.8579 140.738C53.8619 140.65 53.8844 140.563 53.9239 140.484C53.9634 140.405 54.0191 140.335 54.0874 140.279V140.279Z" fill="url(#paint0_linear_26_76)"/>
<path d="M133.5 103.5C131.383 102.65 129.78 102.523 127.5 102.5H117H58C54.9271 102.455 51.6515 102.143 48.8319 100.919C46.0124 99.6946 43.4627 97.924 41.33 95.7088C39.1972 93.4936 37.5235 90.8776 36.4055 88.0118C35.2874 85.146 34.747 82.0869 34.8154 79.011C34.7902 78.8204 34.7902 78.6274 34.8154 78.4368C35.5264 72.236 38.515 66.5213 43.2004 62.4038C47.8859 58.2862 53.9333 56.0598 60.1671 56.1575H102.554C116 56.1575 129.52 58.5 142.072 63.2777C140.79 51.2449 136.47 39.7366 129.52 29.8361C122.569 19.9356 113.217 11.9684 102.342 6.68459C91.4679 1.40075 79.4294 -1.02599 67.3597 -0.367271C55.29 0.291443 43.5863 4.01396 33.35 10.4499C23.1138 16.8859 14.6818 25.8237 8.84757 36.4219C3.01338 47.0202 -0.0310989 58.9303 0.000735392 71.0314C0.0325697 83.1325 3.13965 95.0264 9.02953 105.594C14.9194 116.161 23.3983 125.054 33.6683 131.436C38.2988 134.357 43.2436 136.745 48.4089 138.556C55.6841 140.456 63.2236 141.135 70.7206 140.566H128.077C132.486 140.533 136.744 138.961 140.118 136.121C143.493 133.28 145.771 129.35 146.559 125.007C147.348 120.665 146.598 116.183 144.438 112.336C142.279 108.488 138.845 105.516 134.731 103.932L133.5 103.5Z" fill="url(#paint1_linear_26_76)"/>
</g>
<defs>
<linearGradient id="paint0_linear_26_76" x1="193.5" y1="183" x2="47.0001" y2="56" gradientUnits="userSpaceOnUse">
<stop stop-color="#9FD5F0"/>
<stop offset="1" stop-color="#57BAEC"/>
</linearGradient>
<linearGradient id="paint1_linear_26_76" x1="-8" y1="-8.49999" x2="141.5" y2="141" gradientUnits="userSpaceOnUse">
<stop stop-color="#57BAEC"/>
<stop offset="1" stop-color="#625BF6"/>
</linearGradient>
<clipPath id="clip0_26_76">
<rect width="736" height="183" fill="white"/>
</clipPath>
</defs>
</svg>
